<svg viewBox="0 0 24 24" xmlns="http://www.w3.org/2000/svg"><g opacity="0.5"><path d="M21.3729 8.82544C21.7185 9.84531 21.8937 10.912 21.8937 12C21.8937 17.4553 17.4554 21.8935 12 21.8935C6.54463 21.8935 2.10625 17.4553 2.10625 12C2.10625 6.54457 6.54455 2.10645 12 2.10645C13.0881 2.10645 14.1548 2.2816 15.1746 2.6273V0.425611C14.1445 0.143257 13.0807 0 12 0C5.38323 0 0 5.38319 0 12C0 18.6168 5.38323 24 12 24C18.6168 24 24 18.6168 24 12C24 10.9194 23.8568 9.85553 23.5745 8.82544H21.3729Z" fill="white"/><path fill-rule="evenodd" clip-rule="evenodd" d="M16.3503 11.6356C16.9884 11.2875 17.3713 10.6609 17.3713 9.95309C17.3713 8.61873 16.2458 7.7717 14.4589 7.7717C12.6952 7.7717 11.558 8.59545 11.558 9.89515C11.558 10.6029 11.9989 11.2526 12.6835 11.6356C11.7437 12.0068 11.1403 12.7959 11.1403 13.7243C11.1403 15.163 12.4399 16.0797 14.4705 16.0797C16.501 16.0797 17.8006 15.1514 17.8006 13.6894C17.8006 12.7843 17.2436 12.0068 16.3503 11.6356ZM14.4705 14.583C13.577 14.583 13.0896 14.2001 13.0896 13.5154C13.0896 12.8424 13.577 12.4594 14.4705 12.4594C15.3639 12.4594 15.8629 12.8425 15.8629 13.5154C15.8629 14.2117 15.3639 14.583 14.4705 14.583ZM14.4705 10.9742C13.7163 10.9742 13.2986 10.6494 13.2986 10.0691C13.2986 9.4659 13.7162 9.12934 14.4705 9.12934C15.2247 9.12934 15.6424 9.4659 15.6424 10.0691C15.6424 10.6494 15.2247 10.9742 14.4705 10.9742Z" fill="white"/><path d="M7.54498 9.51168V15.9865H9.61042V7.85243H6.04818V9.51168H7.54498Z" fill="white"/><path d="M20.642 0.911458V3.19793H22.9283V4.84195H20.642V7.12835H18.9978V4.84195H16.725V3.19793H18.9978V0.911458H20.642Z" fill="white"/></g></svg>