<svg width="24" height="16" viewBox="0 0 24 16" fill="none" xmlns="http://www.w3.org/2000/svg"><path d="M3.33333 5.51164L2 9.41831H2.78333L3.16 8.27831H4.24333L4.63 9.41831H5.43L4.09667 5.51164H3.33333ZM4.05667 7.63164H3.35667L3.64667 6.77164C3.66667 6.71164 3.68667 6.65498 3.70333 6.59498C3.72333 6.65498 3.74 6.71498 3.76333 6.77498L4.05667 7.63164Z" fill="#F0F0F0"/><path d="M6.75 7.64164C6.39 7.49831 6.35 7.43164 6.35 7.32831C6.35 7.19831 6.46 7.11498 6.63667 7.11498C6.85 7.11498 7.01334 7.19831 7.09334 7.24831L7.24667 7.34498L7.45 6.72498L7.36 6.66498C7.18334 6.54831 6.91667 6.48164 6.64667 6.48164C6.04334 6.48164 5.60667 6.86164 5.60667 7.38831C5.60667 7.87164 6.03334 8.12831 6.39334 8.25831C6.75 8.39164 6.78 8.48498 6.78 8.59831C6.78 8.81164 6.55334 8.84498 6.42334 8.84498C6.21667 8.84498 5.99334 8.75498 5.86667 8.68164L5.71334 8.59164L5.51334 9.22498L5.61 9.28164C5.83 9.41164 6.12 9.48498 6.41334 9.48498C7.07667 9.48498 7.52334 9.11164 7.52334 8.55831C7.52334 7.99498 7.08 7.76498 6.75 7.64164Z" fill="#F0F0F0"/><path d="M8.70001 5.86168L7.95334 6.08835V6.53501H7.55334V7.17835H7.95668V8.45501C7.95668 8.81168 8.03001 9.06501 8.17668 9.23501C8.32001 9.39501 8.54001 9.48168 8.79001 9.48168C9.01668 9.48168 9.18001 9.43501 9.25668 9.40835L9.35668 9.37168L9.31668 8.72501L9.14668 8.77835C9.09334 8.79168 9.03668 8.80501 8.91334 8.80501C8.82334 8.80501 8.70001 8.80501 8.70001 8.44168V7.17835H9.37668V6.53501H8.70334L8.70001 5.86168Z" fill="#F0F0F0"/><path d="M11.1933 6.50831L11.0567 6.49164C11.0167 6.48498 10.9767 6.48164 10.9233 6.48164C10.6867 6.48164 10.47 6.57831 10.3033 6.74831L10.2967 6.53498H9.59668L9.60668 6.68498C9.62001 6.90498 9.63001 7.16164 9.63001 7.48831V9.42164H10.3867V7.89164C10.3867 7.81831 10.3933 7.74831 10.4 7.69498C10.4567 7.39498 10.6433 7.20831 10.8933 7.20831C10.9533 7.20831 10.99 7.20831 11.0233 7.21498L11.1933 7.25164V6.50831Z" fill="#F0F0F0"/><path d="M12.5733 6.48164C11.73 6.48164 11.14 7.10498 11.14 8.00164C11.14 8.87164 11.71 9.48164 12.5267 9.48164C13.22 9.48164 13.9633 9.00498 13.9633 7.95831C13.97 7.08831 13.3967 6.48164 12.5733 6.48164ZM13.2033 7.97164C13.2033 8.47498 12.93 8.84164 12.5567 8.84164C12.1833 8.84164 11.9133 8.47831 11.9133 7.98498C11.9133 7.66498 12.0533 7.12164 12.57 7.12164C13.07 7.11831 13.2033 7.67498 13.2033 7.97164Z" fill="#F0F0F0"/><path d="M16.45 5.82165C16.2 5.59832 15.8267 5.48499 15.34 5.48499C15.0133 5.48499 14.7033 5.50832 14.42 5.55832L14.3033 5.57832V9.42165H15.0533V7.99165C15.13 7.99832 15.21 8.00165 15.2867 8.00165C15.7933 8.00165 16.2233 7.84499 16.4967 7.56165C16.71 7.34499 16.8167 7.05165 16.8167 6.68832C16.8133 6.33832 16.6867 6.03165 16.45 5.82165ZM16.0633 6.71165C16.0633 7.25832 15.5833 7.33832 15.2967 7.33832C15.2 7.33832 15.12 7.33499 15.05 7.32499V6.15165C15.1233 6.14165 15.2233 6.13832 15.35 6.13832C15.6767 6.14165 16.0633 6.24165 16.0633 6.71165Z" fill="#F0F0F0"/><path d="M19.1167 8.65498V7.68164C19.1167 6.90498 18.7133 6.48164 17.9867 6.48164C17.65 6.48164 17.2967 6.57498 17.05 6.72831L16.9567 6.78831L17.16 7.38831L17.3167 7.28164C17.4733 7.17498 17.7 7.11164 17.9233 7.11164C18.0733 7.10831 18.1867 7.14498 18.26 7.21831C18.32 7.27831 18.3567 7.36831 18.37 7.48164C17.78 7.49831 17.3467 7.64164 17.0867 7.90164C16.9033 8.08164 16.81 8.31498 16.81 8.59164C16.81 9.03164 17.13 9.48164 17.7467 9.48164C18.01 9.48164 18.2567 9.39831 18.45 9.24831L18.47 9.41831H19.1867L19.1633 9.25498C19.1267 9.09831 19.1167 8.89498 19.1167 8.65498ZM17.8567 8.84831C17.7433 8.84831 17.5567 8.80831 17.5567 8.53831C17.5567 8.43498 17.5867 8.35498 17.6533 8.28831C17.7433 8.20164 17.9367 8.10164 18.3767 8.09164V8.40164C18.3767 8.42498 18.3733 8.46498 18.3633 8.50831C18.3067 8.66498 18.1433 8.84831 17.8567 8.84831Z" fill="#F0F0F0"/><path d="M21.1967 6.53497L20.65 8.1583C20.6367 8.1983 20.6233 8.24163 20.61 8.28163C20.5967 8.24163 20.5833 8.20163 20.5667 8.16496L19.97 6.53497H19.1433L20.1767 9.12496L20.18 9.13163C20.1967 9.16497 20.2033 9.18497 20.2033 9.19163C20.1967 9.20497 20.1867 9.23163 20.18 9.2483C20.09 9.44163 19.9567 9.6183 19.8233 9.72497L19.82 9.7283C19.67 9.85497 19.5133 9.91497 19.4533 9.93163L19.32 9.97497L19.5133 10.6216L19.6367 10.5983C19.7133 10.585 19.98 10.5216 20.2867 10.265C20.6533 9.94163 20.8967 9.42163 21.2167 8.5783L22 6.53163L21.1967 6.53497Z" fill="#F0F0F0"/><path d="M4.76334 6.58833C5.25 6.09166 6.07667 5.79499 6.97334 5.79499C7.32334 5.79499 7.66334 5.83833 7.98334 5.92833L8.01 5.93499L8.58667 5.76166L8.32667 5.66499C7.83667 5.47833 7.27 5.37833 6.69 5.37833C5.84667 5.37833 5.06334 5.58166 4.47334 5.95166L4.41 5.99166L4.65334 6.70166L4.76334 6.58833Z" fill="#FF0000"/></svg>