<svg width="24" height="16" viewBox="0 0 24 16" fill="none" xmlns="http://www.w3.org/2000/svg"><path d="M14.9006 5.25756C15.1552 5.25651 15.3524 5.4088 15.4028 5.64393C15.469 5.95272 15.2553 6.23002 14.9384 6.24506C14.7615 6.25381 14.6053 6.20509 14.4912 6.06364C14.3655 5.90758 14.3497 5.72957 14.4261 5.54972C14.5024 5.36987 14.6498 5.27654 14.8439 5.25782C14.8627 5.25598 14.8817 5.25756 14.9006 5.25756Z" fill="#FFB3C7"/><path d="M19.3784 9.77656C19.4901 9.81496 19.5971 9.858 19.707 9.88827C20.0046 9.97159 20.3186 9.9765 20.6187 9.90253C20.7315 9.87506 20.8265 9.81418 20.9131 9.73799C21.0242 9.64028 21.061 9.50941 21.0736 9.37103C21.0824 9.27734 21.0752 9.18226 21.0752 9.08699C21.0699 9.08916 21.0649 9.09211 21.0604 9.09574C20.8131 9.32554 20.5175 9.42815 20.1833 9.42526C19.8365 9.4222 19.5313 9.31006 19.283 9.06338C19.0889 8.87041 18.9749 8.6337 18.9309 8.36497C18.8678 7.97903 18.9134 7.60884 19.1168 7.26856C19.3355 6.90248 19.6539 6.67906 20.0802 6.62614C20.4197 6.58407 20.7328 6.65238 20.998 6.88288C21.025 6.90624 21.0463 6.93607 21.0704 6.96292L21.0829 6.95522V6.71991H21.9V6.76671C21.9 7.58443 21.9 8.40215 21.9 9.21987C21.9 9.53093 21.8378 9.82476 21.6653 10.0883C21.4499 10.4172 21.1379 10.6044 20.7612 10.6889C20.2985 10.7927 19.8464 10.7429 19.4053 10.5777C19.3978 10.5739 19.3913 10.5684 19.3863 10.5616C19.3814 10.5549 19.3781 10.547 19.3767 10.5387C19.375 10.2909 19.3756 10.0431 19.3756 9.79519C19.3762 9.78893 19.3771 9.78271 19.3784 9.77656ZM21.022 8.00081C21.022 7.62152 20.7542 7.37834 20.4428 7.35227C20.1289 7.32603 19.8723 7.46074 19.7592 7.73454C19.6957 7.88841 19.6883 8.04945 19.7266 8.21067C19.8316 8.65067 20.3761 8.84679 20.752 8.57973C20.9434 8.44335 21.0197 8.24924 21.022 8.00046V8.00081Z" fill="#FFB3C7"/><path d="M3.85517 6.90154C3.88964 6.91903 3.92516 6.93522 3.95953 6.95332C4.332 7.14822 4.51605 7.46129 4.53529 7.87619C4.54789 8.1499 4.49934 8.40978 4.35501 8.6471C4.17612 8.94076 3.90722 9.11475 3.58768 9.21972C3.37406 9.2897 3.15354 9.32092 2.92977 9.32346C2.62807 9.32696 2.3262 9.32469 2.02458 9.32477C2.01741 9.32477 2.01032 9.32407 2 9.32346V5.40869C2.01268 5.4079 2.02537 5.40641 2.03805 5.40641C2.2975 5.40641 2.55704 5.4058 2.81658 5.40641C3.08688 5.4072 3.34721 5.45453 3.58768 5.58373C3.80741 5.70173 3.97799 5.86776 4.04876 6.11278C4.13125 6.39838 4.07561 6.6574 3.87101 6.87915C3.86602 6.88448 3.86139 6.88999 3.85675 6.89559C3.85596 6.89655 3.85605 6.89821 3.85517 6.90154ZM2.81483 8.64597C2.89557 8.64186 2.97141 8.64159 3.04647 8.63372C3.41614 8.59462 3.72799 8.31234 3.75265 7.92701C3.78257 7.46129 3.45139 7.15889 3.14671 7.11865C3.13648 7.11734 3.11907 7.1092 3.11916 7.10448C3.11986 7.09222 3.12514 7.08067 3.13394 7.07212C3.2516 6.96461 3.31432 6.83007 3.32577 6.6727C3.34038 6.47247 3.29341 6.29577 3.11785 6.1741C3.02731 6.11155 2.9261 6.08242 2.81483 6.07989V8.64597Z" fill="#FFB3C7"/><path d="M7.83585 9.32393H7.02233V9.04077C6.97308 9.08731 6.93249 9.13061 6.88691 9.16787C6.65782 9.35551 6.39076 9.42943 6.09859 9.42531C5.41847 9.41578 4.91767 8.91735 4.82364 8.28516C4.76468 7.88741 4.83238 7.51381 5.06918 7.1835C5.36038 6.77744 5.76181 6.59348 6.2605 6.61893C6.50491 6.63144 6.72167 6.71096 6.90222 6.87917C6.94211 6.91644 6.97754 6.9586 7.0204 7.00417V6.71944H7.83585V9.32393ZM6.95908 8.01539C6.95908 7.61895 6.68703 7.34935 6.28552 7.34865C5.89512 7.34804 5.618 7.62542 5.61634 8.01854C5.61476 8.41515 5.89057 8.69402 6.28377 8.69323C6.6831 8.69245 6.95882 8.41568 6.95908 8.01539Z" fill="#FFB3C7"/><path d="M13.2001 7.89767L14.2546 9.32273C14.2284 9.32396 14.2127 9.32518 14.1974 9.32518C13.9087 9.32518 13.6201 9.32474 13.3314 9.32606C13.318 9.32692 13.3045 9.32412 13.2925 9.31796C13.2806 9.3118 13.2705 9.30251 13.2633 9.29107C12.9738 8.89999 12.6836 8.50927 12.3929 8.1189L12.35 8.06151V9.32116H11.5347V5.40979H12.3483V7.83075L12.357 7.83495C12.3663 7.82323 12.3758 7.81177 12.3848 7.79996C12.6477 7.45076 12.9104 7.10141 13.1729 6.75192C13.1913 6.72743 13.2092 6.71632 13.2407 6.71693C13.5133 6.71824 13.7858 6.71772 14.0584 6.71781C14.0711 6.71781 14.0838 6.71886 14.1049 6.71982L13.2001 7.89767Z" fill="#FFB3C7"/><path d="M8.34122 9.32235V6.72005H9.15422V6.99717C9.16174 6.99656 9.16594 6.99717 9.16699 6.99603C9.31456 6.78767 9.52083 6.67596 9.76821 6.63537C9.98996 6.59907 10.21 6.60616 10.4243 6.68182C10.702 6.78006 10.8698 6.98405 10.9652 7.25496C11.0448 7.48065 11.065 7.71517 11.0654 7.95223C11.0659 8.39543 11.0659 8.83864 11.0654 9.28185C11.0654 9.29462 11.0641 9.30748 11.0633 9.3227H10.248V9.27205C10.248 8.83328 10.2498 8.39441 10.2463 7.95564C10.2455 7.86685 10.2337 7.77851 10.2113 7.6926C10.1493 7.45642 9.97203 7.33229 9.72815 7.34401C9.43817 7.35809 9.23907 7.53602 9.18178 7.83973C9.16543 7.92844 9.15703 8.01843 9.15667 8.10863C9.15396 8.49492 9.15545 8.8813 9.15545 9.26759V9.32226L8.34122 9.32235Z" fill="#FFB3C7"/><path d="M18.5598 9.32268H17.7444V9.27203C17.7444 8.83326 17.7462 8.39439 17.7427 7.95562C17.7419 7.86683 17.7301 7.77849 17.7077 7.69258C17.6453 7.45482 17.4661 7.33043 17.2203 7.34416C16.9322 7.36017 16.7351 7.53757 16.6779 7.83962C16.6615 7.92838 16.6531 8.01844 16.6528 8.1087C16.6501 8.49508 16.6516 8.88137 16.6516 9.26775V9.32242H15.8388V6.72003H16.6504V6.99706C16.6579 6.99654 16.6621 6.99706 16.6631 6.99601C16.8107 6.78773 17.017 6.67594 17.2644 6.63544C17.4861 6.59905 17.7061 6.60614 17.9204 6.6818C18.1982 6.78004 18.366 6.98403 18.4615 7.25485C18.541 7.48054 18.5613 7.71506 18.5616 7.9522C18.5621 8.39541 18.5621 8.83862 18.5616 9.28183C18.5618 9.2946 18.5606 9.30702 18.5598 9.32268Z" fill="#FFB3C7"/><path d="M14.4929 6.71955H15.3049V9.32282H14.4934L14.4929 6.71955Z" fill="#FFB3C7"/></svg>