<svg width="24" height="16" viewBox="0 0 24 16" fill="none" xmlns="http://www.w3.org/2000/svg"><path d="M17 8.00212C16.9989 10.7637 14.7592 13.0013 11.9979 13C9.23659 12.9989 6.99894 10.7594 7 7.99788C7.00106 5.23739 9.23897 3.00026 11.9995 3C14.761 2.99974 16.9997 5.23844 17 8V8.00212Z" fill="#F7931A"/><path d="M12.9115 7.03009C12.9115 7.66904 11.9083 7.59446 11.5891 7.59446V6.46519C11.9083 6.46466 12.9101 6.36311 12.9101 7.02956L12.9115 7.03009ZM13.1743 8.78668C13.1743 9.48884 11.9724 9.40897 11.5889 9.40923V8.16412C11.9724 8.16386 13.1746 8.05358 13.1746 8.78615L13.1743 8.78668ZM13.9656 6.77673C13.9014 6.10684 13.323 5.88231 12.5931 5.81831V4.88924H12.0276V5.79398C11.879 5.79398 11.7269 5.79689 11.5759 5.80006V4.8895H11.0108V5.81831C10.8883 5.82069 10.768 5.82307 10.6508 5.82307V5.82016H9.87064V6.42499C9.87064 6.42499 10.2882 6.41706 10.2814 6.42499C10.4392 6.40463 10.5844 6.51518 10.6066 6.6728V7.73066C10.6265 7.73066 10.6466 7.73199 10.6664 7.73463H10.6066V9.21749C10.6 9.32778 10.5056 9.41161 10.3956 9.405H10.3951C10.4022 9.41135 9.98409 9.405 9.98409 9.405L9.87169 10.0804H10.6077C10.7447 10.0804 10.8793 10.0828 11.0115 10.0839V11.0235H11.5764V10.0937C11.7314 10.0968 11.8816 10.0982 12.0282 10.0982V11.0238H12.5928V10.0857C13.5449 10.0313 14.2092 9.79165 14.2917 8.89881C14.3584 8.17973 14.0201 7.85893 13.4806 7.72934C13.84 7.55902 14.0392 7.16761 13.9656 6.77673Z" fill="white"/></svg>