<svg width="24" height="16" viewBox="0 0 24 16" fill="none" xmlns="http://www.w3.org/2000/svg"><path d="M15.6085 9.17854C15.2909 9.17854 15.0537 9.01677 14.9875 8.73144C14.9246 9.01677 14.6874 9.17854 14.3699 9.17854C13.847 9.17854 13.5885 8.8217 13.5885 8.33779V6.89378H14.0979V8.37026C14.0979 8.60451 14.178 8.76026 14.4154 8.76026C14.6421 8.76026 14.7328 8.60451 14.7363 8.37026V6.89378H15.2423V8.37026C15.2423 8.60451 15.3365 8.76026 15.5631 8.76026C15.8005 8.76026 15.8805 8.60451 15.8805 8.37026V6.89378H16.39V8.33793C16.3898 8.82183 16.1316 9.17854 15.6085 9.17854ZM17.9258 9.14286V8.98389C17.8036 9.12131 17.6084 9.17854 17.4268 9.17854C17.0919 9.17854 16.7678 8.96625 16.7678 8.57946C16.7678 8.16819 17.0781 8.02363 17.448 8.02363H17.9258V7.9622C17.9258 7.68036 17.6956 7.65168 17.4861 7.65168C17.2767 7.65168 17.1199 7.69142 16.9943 7.75621L16.8723 7.41672C16.9595 7.37027 17.1966 7.24754 17.5977 7.24754C18.0442 7.24754 18.435 7.52209 18.435 7.9804V9.14272H17.9258V9.14286ZM17.9258 8.32674H17.5769C17.3849 8.32674 17.2767 8.39895 17.2767 8.54714C17.2767 8.69519 17.3955 8.77496 17.5315 8.77496C17.7862 8.77496 17.9258 8.61934 17.9258 8.53259V8.32674ZM18.8848 9.14202V6.48319H19.385V9.14202H18.8848ZM19.8448 9.14202V6.48319H20.3451V9.14202H19.8448ZM21.2129 8.37767V8.41014C21.2129 8.6882 21.4188 8.7751 21.635 8.7751C21.8442 8.7751 22.0638 8.70205 22.2177 8.62662L22.3607 8.98403C22.2734 9.03105 21.977 9.17868 21.5755 9.17868C21.0698 9.17868 20.7036 8.85766 20.7036 8.37333V8.05288C20.7036 7.5652 21.0698 7.24782 21.5755 7.24782C22.0849 7.24782 22.4512 7.56883 22.4512 8.05288L22.4478 8.37236L21.2129 8.37767ZM21.5755 7.64804C21.4013 7.64804 21.2129 7.72388 21.2129 8.03805H21.9421C21.942 7.72388 21.7536 7.64804 21.5755 7.64804ZM23.7974 9.14286C23.3581 9.14286 22.9917 8.86829 22.9917 8.46415V7.70247H22.6743V7.28756H22.9917V6.71675H23.4977V7.28406H24V7.70247H23.4977V8.49284C23.4977 8.62662 23.6229 8.72416 23.7941 8.72416H24V9.14286H23.7974Z" fill="#7296D7"/><path d="M5.89563 8.37772V8.41019C5.89563 8.68824 6.10143 8.77514 6.31737 8.77514C6.52697 8.77514 6.74657 8.7021 6.90031 8.62667L7.04337 8.98408C6.95602 9.03109 6.65949 9.17873 6.25829 9.17873C5.75256 9.17873 5.38638 8.85771 5.38638 8.37338V8.05292C5.38638 7.56524 5.75243 7.24786 6.25829 7.24786C6.76753 7.24786 7.13397 7.56888 7.13397 8.05292V8.37772H5.89563ZM6.25829 7.64808C6.08385 7.64808 5.89563 7.72393 5.89563 8.03809H6.62473C6.62473 7.72393 6.43624 7.64808 6.25829 7.64808ZM7.4101 9.14291V8.81447L8.43937 7.31237H7.49024V6.89381H9.10544V7.22253L8.06595 8.72421H9.15441V9.14291H7.4101ZM9.95766 8.37772V8.41019C9.95766 8.68824 10.1633 8.77514 10.3796 8.77514C10.5889 8.77514 10.8088 8.7021 10.9623 8.62667L11.1053 8.98408C11.0179 9.03109 10.7217 9.17873 10.3203 9.17873C9.81435 9.17873 9.44829 8.85771 9.44829 8.37338V8.05292C9.44829 7.56524 9.81435 7.24786 10.3203 7.24786C10.8297 7.24786 11.196 7.56888 11.196 8.05292V8.37772H9.95766ZM10.3203 7.64808C10.1459 7.64808 9.95766 7.72393 9.95766 8.03809H10.6866C10.6866 7.72393 10.4982 7.64808 10.3203 7.64808ZM11.9658 8.37772V8.41019C11.9658 8.68824 12.1716 8.77514 12.3878 8.77514C12.597 8.77514 12.8169 8.7021 12.9704 8.62667L13.1135 8.98408C13.0261 9.03109 12.7298 9.17873 12.3286 9.17873C11.8226 9.17873 11.4564 8.85771 11.4564 8.37338V8.05292C11.4564 7.56524 11.8226 7.24786 12.3286 7.24786C12.8379 7.24786 13.2043 7.56888 13.2043 8.05292V8.37772H11.9658ZM12.3286 7.64808C12.1542 7.64808 11.9658 7.72393 11.9658 8.03809H12.6949C12.6949 7.72393 12.5065 7.64808 12.3286 7.64808Z" fill="#7296D7"/><path d="M4.07013 8.28535V8.85909H1.9066C1.75678 8.85909 1.62872 8.71971 1.62872 8.56481C1.62872 8.41003 1.75002 8.28395 1.89985 8.28395L4.07013 8.28535ZM1.9066 7.13786C1.75678 7.13786 1.62264 7.27696 1.62264 7.43173C1.62264 7.58664 1.75002 7.72336 1.89985 7.72336L4.07013 7.72559V7.13786H1.9066ZM1.4762 9.40626C1.15803 9.40626 0.900295 9.27792 0.900295 8.86245C0.900295 8.31236 1.4236 8.46503 1.4236 8.00379C1.4236 7.54242 0.885963 7.70979 0.885963 7.15969C0.885963 6.74421 1.15803 6.6012 1.4762 6.6012L4.32704 6.5921V5.76955H1.35221C0.628641 5.76955 0.0294807 6.17425 0.0294807 7.01206C0.0294807 7.72321 0.544533 7.72321 0.544533 8.00379C0.544533 8.28423 0 8.27681 0 8.98812C0 9.8262 0.642165 10.2305 1.36572 10.2305H4.34057L4.33908 9.40626H1.4762Z" fill="#03C5D3"/></svg>