<svg width="24" height="16" viewBox="0 0 24 16" fill="none" xmlns="http://www.w3.org/2000/svg"><path d="M6.40147 5.42574H5.42206C5.40221 5.42574 5.38235 5.4456 5.38235 5.46545V5.53163V8.9331C5.38235 9.17795 5.25662 9.40295 5.03824 9.52207C4.95221 9.56839 4.85294 9.59486 4.75368 9.59486H4.73382C4.51544 9.59486 4.30368 9.48236 4.18456 9.30368C4.125 9.20442 4.09191 9.09192 4.09191 8.97942C4.09191 8.95957 4.07206 8.93971 4.05221 8.93971H3.05294C3.03971 8.93971 3.01985 8.94633 3.01324 8.95957C3.00662 8.95957 3 8.9728 3 8.98604C3.02647 9.91913 3.7875 10.6537 4.71397 10.6537H4.74706C5.68015 10.6471 6.44118 9.87942 6.44118 8.9331V5.46545C6.44118 5.4456 6.42132 5.42574 6.40147 5.42574Z" fill="#FF6300"/><path d="M17.1485 8.00662C16.9699 7.56324 16.6191 7.20588 16.1691 7.02059C15.6927 6.82868 15.1632 6.82868 14.6934 7.02059C14.4684 7.10662 14.2699 7.24559 14.0978 7.41103C13.9324 7.58309 13.8066 7.78162 13.7206 8C13.6279 8.23824 13.575 8.48971 13.5816 8.74118C13.5816 8.99927 13.6279 9.25074 13.7206 9.48897C13.8066 9.70735 13.9324 9.9125 14.0978 10.0846C14.2699 10.2566 14.4684 10.389 14.6934 10.475C15.1699 10.6603 15.6927 10.6603 16.1691 10.475C16.3875 10.3824 16.586 10.25 16.7581 10.0846C16.9235 9.9125 17.0559 9.71397 17.1485 9.48897C17.2412 9.25074 17.2875 8.99927 17.2875 8.74118C17.2941 8.49632 17.2412 8.24485 17.1485 8.00662ZM14.8985 8.07941C14.9647 8.01324 15.0441 7.9603 15.1368 7.92721C15.3287 7.85441 15.5404 7.85441 15.7324 7.92721C15.825 7.9603 15.9044 8.01985 15.9772 8.08603C16.05 8.16544 16.1096 8.25809 16.1493 8.35735C16.2353 8.61544 16.2353 8.89338 16.1493 9.15147C16.1096 9.25735 16.05 9.35 15.9772 9.42941C15.911 9.50221 15.825 9.55515 15.7324 9.59485C15.5404 9.66765 15.3287 9.66765 15.1434 9.59485C15.0507 9.55515 14.9713 9.50221 14.9052 9.42941C14.8324 9.35 14.7728 9.25735 14.7331 9.15147C14.6404 8.9 14.6404 8.62206 14.7331 8.36397C14.7662 8.25809 14.8191 8.15882 14.8985 8.07941Z" fill="#FF6300"/><path d="M21 8.37058V10.614C21 10.6338 20.9802 10.6537 20.9603 10.6537H21H19.9809C19.961 10.6537 19.9412 10.6338 19.9412 10.614V8.54926C19.9478 8.45661 19.9346 8.36397 19.9147 8.27132C19.8882 8.19191 19.8419 8.1125 19.7824 8.05294C19.7559 8.03308 19.736 8.00661 19.7096 7.99338C19.6235 7.93382 19.4647 7.90735 19.3654 7.90735C19.1802 7.90735 19.0147 8 18.9088 8.1522C18.8691 8.21176 18.8493 8.27794 18.836 8.35073C18.8228 8.41029 18.8228 8.46323 18.8228 8.52279C18.8228 8.52941 18.8228 8.54264 18.8228 8.54926V10.614C18.8228 10.6338 18.8029 10.6537 18.7831 10.6537H17.8037C17.7838 10.6537 17.764 10.6338 17.764 10.614V6.9875C17.764 6.96764 17.7838 6.94779 17.8037 6.94779H17.7971H18.7831C18.8096 6.94779 18.8228 6.96764 18.8228 6.9875V7.17279C18.8228 7.17941 18.8228 7.18603 18.8294 7.19264C18.836 7.19926 18.8427 7.19926 18.8493 7.19264C18.9088 7.14632 18.975 7.10661 19.0412 7.08014C19.425 6.90808 19.8552 6.90147 20.2522 7.05367C20.4177 7.12647 20.5632 7.23235 20.6757 7.37132C20.7882 7.50367 20.8743 7.6625 20.9206 7.82794C20.9735 8.00661 21 8.18529 21 8.37058Z" fill="#FF6300"/><path d="M13.0853 6.94778H12.5029C12.4831 6.94778 12.4632 6.92793 12.4632 6.90808V5.46543C12.4632 5.44558 12.4434 5.42573 12.4235 5.42573H11.4441C11.4243 5.42573 11.4044 5.44558 11.4044 5.46543V5.34631V6.8419C11.4044 6.86175 11.3846 6.88161 11.3647 6.88161H11.0471C11.0272 6.88161 11.0074 6.90146 11.0074 6.92131V7.83455C11.0074 7.86102 11.0272 7.87425 11.0471 7.87425H11.3647C11.3846 7.87425 11.4044 7.89411 11.4044 7.91396V9.13823C11.4044 9.95881 12.0596 10.6272 12.8735 10.6272C12.9463 10.6272 13.0191 10.6206 13.0919 10.614C13.1118 10.6073 13.125 10.5941 13.125 10.5743V9.56837C13.125 9.54852 13.1051 9.52867 13.0853 9.52867H12.8537C12.6618 9.52867 12.4831 9.3897 12.4632 9.19117C12.4632 9.17793 12.4632 9.15808 12.4632 9.14484V7.98014C12.4632 7.95367 12.4831 7.94043 12.5029 7.94043H13.0853C13.1051 7.94043 13.125 7.92058 13.125 7.90073V6.99411C13.125 6.96764 13.1051 6.94778 13.0853 6.94778Z" fill="#FF6300"/><path d="M9.89558 7.30513C9.88235 7.29189 9.8625 7.27866 9.84264 7.26542C9.45882 6.98748 8.97573 6.86836 8.5125 6.94777H8.48603C8.3272 6.96763 8.16838 7.00733 8.02279 7.06689C7.80441 7.15954 7.60588 7.29189 7.44044 7.45733C7.275 7.62277 7.14264 7.82792 7.05 8.0463C6.95735 8.28454 6.91103 8.53601 6.91103 8.78748C6.91103 9.03895 6.95735 9.29042 7.05 9.52866C7.13603 9.74704 7.26838 9.95218 7.43382 10.1176C7.59926 10.2831 7.79779 10.4154 8.02279 10.5081C8.23456 10.5941 8.45294 10.6404 8.67794 10.647C8.73088 10.647 8.78382 10.6537 8.84338 10.6537H8.9625C9.525 10.6139 10.0346 10.3095 10.339 9.83968C10.3456 9.83307 10.3456 9.81983 10.3456 9.81321C10.3456 9.8066 10.339 9.79336 10.3323 9.79336C10.3323 9.78674 10.3257 9.78674 10.3191 9.78674L9.44558 9.54189C9.42573 9.53527 9.39926 9.52866 9.37279 9.53527C9.34632 9.54189 9.31323 9.55513 9.29338 9.56836L9.28676 9.57498C9.075 9.71395 8.81029 9.74042 8.57206 9.65439C8.56544 9.65439 8.56544 9.64777 8.55882 9.64777C8.34044 9.56174 8.16838 9.38307 8.09558 9.15807C8.09558 9.15145 8.09558 9.13821 8.09558 9.13821C8.1022 9.1316 8.1022 9.1316 8.10882 9.1316H10.4051C10.4184 9.1316 10.4382 9.12498 10.4382 9.10513C10.5441 8.74116 10.5243 8.35733 10.3853 8.01321C10.286 7.73527 10.114 7.49704 9.89558 7.30513ZM9.4125 8.2713H8.1022C8.10882 8.25145 8.11544 8.2316 8.12867 8.21174L8.13529 8.19851C8.16176 8.16542 8.18823 8.12571 8.2147 8.09924C8.28088 8.02645 8.36029 7.97351 8.45294 7.94042C8.64485 7.86763 8.85661 7.86763 9.04853 7.94042C9.19411 7.99998 9.31323 8.09924 9.39926 8.2316C9.39926 8.24483 9.40588 8.25807 9.4125 8.2713Z" fill="#FF6300"/></svg>