<svg width="135" height="40" viewBox="0 0 135 40" fill="none" xmlns="http://www.w3.org/2000/svg">
<g clip-path="url(#clip0_11002_15689)">
<path d="M15.1732 11.2492H10.5489L9.79794 15.7919C7.62017 15.4258 5.96094 13.5315 5.96094 11.2497C5.96094 8.70578 8.02317 6.64355 10.5671 6.64355C13.1108 6.64355 15.1729 8.7055 15.1732 11.2492Z" fill="#FF0000"/>
<path fill-rule="evenodd" clip-rule="evenodd" d="M8.24165 1.06899C2.54825 2.34327 -1.02797 7.95521 0.257869 13.5977C1.2321 17.8728 4.7191 20.9434 8.8283 21.6262L9.00603 20.5606C7.80585 20.3615 6.64766 19.9364 5.60781 19.3068L6.97527 17.0922C7.72999 17.5486 8.56687 17.8575 9.43267 18.0029L9.58791 17.0723C7.29167 16.6885 5.34557 14.9721 4.80067 12.581C4.08078 9.42193 6.08 6.28457 9.26761 5.57113C12.4553 4.85768 15.621 6.83905 16.3409 9.99809C16.4395 10.4308 16.4871 10.8632 16.4876 11.289H17.4326C17.4318 10.7886 17.3745 10.2885 17.2633 9.80052C17.1247 9.19218 16.9028 8.61158 16.6061 8.0566L18.8971 6.78916L18.9067 6.83144C19.3283 7.58041 19.6382 8.39012 19.8288 9.22633C19.9823 9.90007 20.0636 10.5969 20.0603 11.289H21.1454C21.1448 10.5277 21.0599 9.75481 20.8837 8.98134C19.5978 3.33882 13.9351 -0.205296 8.24165 1.06899ZM10.8195 1.88802C12.4753 1.9353 14.102 2.40478 15.5213 3.25704L14.1558 5.48013C13.1272 4.85814 11.948 4.51846 10.749 4.4849L10.8195 1.88802ZM2.4827 6.37946C3.3445 4.9811 4.57267 3.81955 6.03758 3.02938L7.29165 5.31203C6.23119 5.88662 5.33846 6.72558 4.71744 7.73476L2.4827 6.37946ZM2.27678 15.8533L2.23472 15.7474L2.21771 15.7512C1.80279 14.9919 1.49289 14.1824 1.30426 13.3546C1.131 12.5943 1.0535 11.8217 1.07349 11.0447L3.69612 11.1147C3.68106 11.6774 3.73603 12.2332 3.86118 12.7824C3.99976 13.3905 4.22168 13.9711 4.51835 14.5261L4.60798 14.6835L4.64839 14.8609L2.27018 15.8637L2.27678 15.8533Z" fill="#FF0000"/>
<path fill-rule="evenodd" clip-rule="evenodd" d="M59.1176 10.5811C57.3708 10.5811 55.7404 11.9893 55.4715 13.7259L53.514 26.3357C53.2464 28.0668 54.4428 29.4751 56.1896 29.4751H85.2514C86.9982 29.4751 88.6368 28.0668 88.9058 26.3357L90.8633 13.7259C91.1309 11.9893 89.9345 10.5811 88.1877 10.5811H59.1176ZM60.4526 25.9578C61.4452 26.5225 62.6194 26.8083 63.967 26.8083C65.3228 26.8083 66.5774 26.5225 67.7378 25.9578C68.912 25.3863 69.8755 24.599 70.6436 23.5988C71.4199 22.5973 71.9051 21.461 72.102 20.2094C72.2975 18.9523 72.1602 17.8147 71.6958 16.8145C71.2383 15.8129 70.5216 15.027 69.5206 14.4555C68.5419 13.8908 67.3746 13.605 66.0187 13.605C64.6712 13.605 63.4097 13.8908 62.2354 14.4555C61.0751 15.027 60.1032 15.8129 59.3283 16.8145C58.5672 17.8147 58.082 18.9523 57.8851 20.2094C57.6966 21.461 57.8199 22.5973 58.2774 23.5988C58.7405 24.599 59.4655 25.3863 60.4526 25.9578ZM66.2586 23.3763C65.686 23.684 65.0774 23.8338 64.4314 23.8338C63.7867 23.8338 63.228 23.684 62.7498 23.3763C62.2715 23.0768 61.9235 22.655 61.7059 22.1109C61.4882 21.5545 61.4313 20.917 61.5395 20.2094C61.6559 19.495 61.9013 18.8657 62.2937 18.323C62.6846 17.7652 63.1629 17.3366 63.7354 17.0357C64.3011 16.7279 64.9097 16.5782 65.5557 16.5782C66.2003 16.5782 66.766 16.7279 67.2443 17.0357C67.7156 17.3366 68.0636 17.7652 68.2812 18.323C68.5058 18.8657 68.5571 19.495 68.4476 20.2094C68.3395 20.917 68.0858 21.5545 67.6934 22.1109C67.3025 22.655 66.8242 23.0768 66.2586 23.3763ZM85.1793 26.5514L87.1438 13.8619H83.6058L82.555 20.6243L77.9593 13.8619H74.98L73.0073 26.5514H76.5521L77.603 19.7876L82.2001 26.5514H85.1793Z" fill="#03F295"/>
<path d="M121.977 13.7295H128.05C129.453 13.7295 130.661 13.9988 131.671 14.5291C132.675 15.0539 133.41 15.811 133.86 16.7782C134.304 17.7537 134.436 18.8954 134.232 20.1979C134.035 21.5086 133.562 22.6503 132.814 23.6189C132.065 24.5944 131.104 25.3431 129.933 25.8748C128.763 26.4052 127.475 26.6745 126.072 26.6745H119.992L121.977 13.7295ZM100.224 23.2328H98.2371L97.7145 26.6745H94.0781L96.0634 13.7295H101.932C103.096 13.7295 104.071 13.926 104.871 14.3258C105.664 14.7036 106.245 15.2573 106.594 15.9855C106.95 16.6985 107.053 17.5421 106.907 18.5176C106.762 19.4559 106.421 20.2789 105.868 20.9769C105.337 21.6679 104.638 22.2148 103.766 22.6077L105.917 26.6745H102.027L100.224 23.2328ZM103.235 18.5176C103.329 17.913 103.213 17.4473 102.886 17.1134C102.55 16.7782 102.02 16.6188 101.27 16.6188H99.2561L98.6738 20.4026H100.69C101.438 20.4026 102.027 20.2418 102.456 19.9217C102.886 19.5947 103.148 19.1221 103.235 18.5176ZM118.414 23.8442L117.977 26.6745H107.664L109.643 13.7295H119.723L119.286 16.5597H112.806L112.471 18.7429H118.181L117.766 21.4797H112.056L111.693 23.8442H118.414ZM126.37 23.7494C127.468 23.7494 128.398 23.4362 129.155 22.811C129.926 22.1777 130.392 21.3121 130.567 20.1979C130.733 19.0919 130.53 18.2263 129.955 17.5929C129.388 16.9678 128.559 16.6545 127.453 16.6545H125.163L124.072 23.7494H126.37Z" fill="white"/>
<path d="M18.2356 24.0743C19.5069 24.0743 20.2126 23.6429 20.3498 22.7787C20.4801 21.909 19.9145 21.4776 18.6418 21.4776H15.5905L15.1912 24.0743H18.2356ZM16.3613 16.4986L15.9759 18.973H18.4755C19.7038 18.973 20.3789 18.5567 20.5023 17.7296C20.634 16.9094 20.0809 16.4986 18.8609 16.4986H16.3613ZM22.0938 20.0171C22.7911 20.2686 23.3069 20.6711 23.634 21.2248C23.9682 21.7579 24.0777 22.4119 23.9543 23.1826C23.7796 24.3051 23.1987 25.1679 22.195 25.7793C21.1927 26.3907 19.841 26.693 18.1261 26.693H11.1875L13.17 13.8799H19.7398C21.3812 13.8799 22.5804 14.189 23.3443 14.8004C24.1068 15.3981 24.4118 16.2032 24.2524 17.2322C24.1581 17.8436 23.9182 18.3904 23.5398 18.8795C23.1696 19.3549 22.6899 19.7355 22.0938 20.0171Z" fill="white"/>
<path d="M36.0477 23.8943L35.6179 26.693H25.3008L27.2763 13.8799H37.355L36.9266 16.6854H30.4441L30.11 18.8438H35.8217L35.4003 21.549H29.6885L29.3337 23.8943H36.0477Z" fill="white"/>
<path d="M42.9338 16.7582H38.9883L39.4305 13.8799H50.9413L50.4977 16.7582H46.5743L45.0341 26.693H41.4005L42.9338 16.7582Z" fill="white"/>
</g>
<defs>
<clipPath id="clip0_11002_15689">
<rect width="135" height="39.99" fill="white"/>
</clipPath>
</defs>
</svg>
