<svg width="24" height="16" viewBox="0 0 24 16" fill="none" xmlns="http://www.w3.org/2000/svg"><g clip-path="url(#clip0_360_279)"><path d="M10.2408 7H10.6231L11.3816 8.78014L12.1212 7H12.5036V9.7329H12.1024V8.02797H12.0899L11.5069 9.4571H11.2562L10.6482 8.02797H10.6419V9.7329H10.2408V7Z" fill="white"/><path d="M13.45 7.78348H13.0739V9.72659H13.45V7.78348Z" fill="white"/><path d="M14.0079 7H15.506V7.38862H14.4091V8.19721H15.506V8.56076H14.4091V9.7329H14.0079V7Z" fill="white"/><path d="M16.277 7.78348H15.9009V9.72659H16.277V7.78348Z" fill="white"/><path d="M16.7972 7.78348H17.1733V7.99033H17.1796C17.3049 7.83362 17.4679 7.75841 17.6685 7.75841C17.8252 7.75841 17.9694 7.81482 18.0947 7.92765C18.2201 8.04047 18.289 8.20971 18.2953 8.43536V9.72659H17.9192V8.57326C17.9192 8.43536 17.8816 8.33507 17.8127 8.25986C17.7437 8.18464 17.656 8.1533 17.5431 8.1533C17.4366 8.1533 17.3425 8.19091 17.2736 8.25986C17.2046 8.32881 17.167 8.43536 17.167 8.57326V9.73286H16.791L16.7972 7.78348Z" fill="white"/><path d="M19.1728 7.78348H18.7968V9.72659H19.1728V7.78348Z" fill="white"/><path d="M19.737 7.00625H20.113V7.78349H20.3888V8.08436H20.113V9.21889C20.113 9.31918 20.1569 9.36306 20.2447 9.36306H20.3888V9.73288H20.1945C20.0629 9.73288 19.9501 9.689 19.8686 9.60752C19.7808 9.52603 19.737 9.40694 19.737 9.2565V8.08436H19.5489V7.78349H19.737V7.00625Z" fill="white"/><path d="M20.6396 7.78348H21.0407L21.4858 9.14366H21.492L21.9371 7.78348H22.3382L21.5296 10.134C21.4795 10.2782 21.4043 10.3785 21.3165 10.4349C21.2225 10.4913 21.1159 10.5164 21.0031 10.5164H20.8777V10.1466H20.9906C21.0407 10.1466 21.0846 10.134 21.1285 10.1027C21.1723 10.0713 21.1974 10.0337 21.2162 9.97732L21.3165 9.65138L20.6396 7.78348Z" fill="white"/><path d="M13.262 7.46384C13.3901 7.46384 13.4939 7.36001 13.4939 7.23192C13.4939 7.10383 13.3901 7 13.262 7C13.1339 7 13.0301 7.10383 13.0301 7.23192C13.0301 7.36001 13.1339 7.46384 13.262 7.46384Z" fill="white"/><path d="M16.0889 7.46384C16.217 7.46384 16.3208 7.36001 16.3208 7.23192C16.3208 7.10383 16.217 7 16.0889 7C15.9608 7 15.857 7.10383 15.857 7.23192C15.857 7.36001 15.9608 7.46384 16.0889 7.46384Z" fill="white"/><path d="M18.9848 7.46384C19.1129 7.46384 19.2167 7.36001 19.2167 7.23192C19.2167 7.10383 19.1129 7 18.9848 7C18.8567 7 18.7529 7.10383 18.7529 7.23192C18.7529 7.36001 18.8567 7.46384 18.9848 7.46384Z" fill="white"/><path d="M5.23255 8.00913C5.29486 8.00913 5.34537 7.95862 5.34537 7.8963C5.34537 7.83399 5.29486 7.78348 5.23255 7.78348C5.17023 7.78348 5.11972 7.83399 5.11972 7.8963C5.11972 7.95862 5.17023 8.00913 5.23255 8.00913Z" fill="white"/><path d="M4.9505 7.78351C5.01973 7.78351 5.07586 7.72738 5.07586 7.65815C5.07586 7.58891 5.01973 7.53278 4.9505 7.53278C4.88126 7.53278 4.82513 7.58891 4.82513 7.65815C4.82513 7.72738 4.88126 7.78351 4.9505 7.78351Z" fill="white"/><path d="M4.62455 7.57666C4.69725 7.57666 4.75618 7.51773 4.75618 7.44503C4.75618 7.37233 4.69725 7.3134 4.62455 7.3134C4.55185 7.3134 4.49292 7.37233 4.49292 7.44503C4.49292 7.51773 4.55185 7.57666 4.62455 7.57666Z" fill="white"/><path d="M4.2422 7.43247C4.31489 7.43247 4.37383 7.37354 4.37383 7.30084C4.37383 7.22815 4.31489 7.16921 4.2422 7.16921C4.1695 7.16921 4.11057 7.22815 4.11057 7.30084C4.11057 7.37354 4.1695 7.43247 4.2422 7.43247Z" fill="white"/><path d="M3.82223 7.41366C3.90877 7.41366 3.97893 7.34351 3.97893 7.25696C3.97893 7.17042 3.90877 7.10026 3.82223 7.10026C3.73569 7.10026 3.66553 7.17042 3.66553 7.25696C3.66553 7.34351 3.73569 7.41366 3.82223 7.41366Z" fill="white"/><path d="M3.36466 7.52647C3.46159 7.52647 3.54016 7.44789 3.54016 7.35096C3.54016 7.25403 3.46159 7.17545 3.36466 7.17545C3.26773 7.17545 3.18915 7.25403 3.18915 7.35096C3.18915 7.44789 3.26773 7.52647 3.36466 7.52647Z" fill="white"/><path d="M2.92588 7.85245C3.03319 7.85245 3.12019 7.76546 3.12019 7.65814C3.12019 7.55083 3.03319 7.46383 2.92588 7.46383C2.81856 7.46383 2.73157 7.55083 2.73157 7.65814C2.73157 7.76546 2.81856 7.85245 2.92588 7.85245Z" fill="white"/><path d="M2.61249 8.30376C2.72673 8.30376 2.81934 8.21115 2.81934 8.09692C2.81934 7.98268 2.72673 7.89007 2.61249 7.89007C2.49825 7.89007 2.40564 7.98268 2.40564 8.09692C2.40564 8.21115 2.49825 8.30376 2.61249 8.30376Z" fill="white"/><path d="M2.58741 8.94934C2.71203 8.94934 2.81306 8.84832 2.81306 8.72369C2.81306 8.59907 2.71203 8.49804 2.58741 8.49804C2.46278 8.49804 2.36176 8.59907 2.36176 8.72369C2.36176 8.84832 2.46278 8.94934 2.58741 8.94934Z" fill="white"/><path d="M2.94468 9.53227C3.08661 9.53227 3.20167 9.41721 3.20167 9.27528C3.20167 9.13335 3.08661 9.01829 2.94468 9.01829C2.80274 9.01829 2.68768 9.13335 2.68768 9.27528C2.68768 9.41721 2.80274 9.53227 2.94468 9.53227Z" fill="white"/><path d="M5.68384 8.65476C5.80847 8.65476 5.90949 8.55374 5.90949 8.42911C5.90949 8.30449 5.80847 8.20346 5.68384 8.20346C5.55922 8.20346 5.45819 8.30449 5.45819 8.42911C5.45819 8.55374 5.55922 8.65476 5.68384 8.65476Z" fill="white"/><path d="M6.17276 8.16584C6.30431 8.16584 6.41095 8.0592 6.41095 7.92765C6.41095 7.7961 6.30431 7.68946 6.17276 7.68946C6.04121 7.68946 5.93457 7.7961 5.93457 7.92765C5.93457 8.0592 6.04121 8.16584 6.17276 8.16584Z" fill="white"/><path d="M5.11971 9.1625C5.25818 9.1625 5.37044 9.05024 5.37044 8.91177C5.37044 8.7733 5.25818 8.66105 5.11971 8.66105C4.98124 8.66105 4.86899 8.7733 4.86899 8.91177C4.86899 9.05024 4.98124 9.1625 5.11971 9.1625Z" fill="white"/><path d="M4.48037 9.6075C4.64654 9.6075 4.78124 9.4728 4.78124 9.30663C4.78124 9.14046 4.64654 9.00576 4.48037 9.00576C4.31421 9.00576 4.1795 9.14046 4.1795 9.30663C4.1795 9.4728 4.31421 9.6075 4.48037 9.6075Z" fill="white"/><path d="M3.68432 9.83944C3.87471 9.83944 4.02906 9.68509 4.02906 9.49469C4.02906 9.3043 3.87471 9.14995 3.68432 9.14995C3.49392 9.14995 3.33957 9.3043 3.33957 9.49469C3.33957 9.68509 3.49392 9.83944 3.68432 9.83944Z" fill="white"/><path d="M6.83091 7.80858C6.99015 7.80858 7.11924 7.67949 7.11924 7.52025C7.11924 7.36101 6.99015 7.23192 6.83091 7.23192C6.67166 7.23192 6.54257 7.36101 6.54257 7.52025C6.54257 7.67949 6.67166 7.80858 6.83091 7.80858Z" fill="white"/><path d="M7.62697 7.62681C7.80006 7.62681 7.94038 7.48649 7.94038 7.31341C7.94038 7.14032 7.80006 7 7.62697 7C7.45388 7 7.31357 7.14032 7.31357 7.31341C7.31357 7.48649 7.45388 7.62681 7.62697 7.62681Z" fill="white"/><path d="M8.33527 7.79603C8.4772 7.79603 8.59226 7.68097 8.59226 7.53904C8.59226 7.3971 8.4772 7.28204 8.33527 7.28204C8.19334 7.28204 8.07828 7.3971 8.07828 7.53904C8.07828 7.68097 8.19334 7.79603 8.33527 7.79603Z" fill="white"/><path d="M8.69254 8.36015C8.81716 8.36015 8.91819 8.25912 8.91819 8.1345C8.91819 8.00987 8.81716 7.90884 8.69254 7.90884C8.56792 7.90884 8.46689 8.00987 8.46689 8.1345C8.46689 8.25912 8.56792 8.36015 8.69254 8.36015Z" fill="white"/><path d="M8.68 8.94937C8.78731 8.94937 8.87431 8.86237 8.87431 8.75506C8.87431 8.64774 8.78731 8.56075 8.68 8.56075C8.57268 8.56075 8.48569 8.64774 8.48569 8.75506C8.48569 8.86237 8.57268 8.94937 8.68 8.94937Z" fill="white"/><path d="M8.35407 9.3693C8.451 9.3693 8.52957 9.29072 8.52957 9.19379C8.52957 9.09686 8.451 9.01829 8.35407 9.01829C8.25714 9.01829 8.17856 9.09686 8.17856 9.19379C8.17856 9.29072 8.25714 9.3693 8.35407 9.3693Z" fill="white"/><path d="M7.94037 9.65139C8.0373 9.65139 8.11588 9.57281 8.11588 9.47588C8.11588 9.37895 8.0373 9.30038 7.94037 9.30038C7.84344 9.30038 7.76486 9.37895 7.76486 9.47588C7.76486 9.57281 7.84344 9.65139 7.94037 9.65139Z" fill="white"/><path d="M7.47653 9.72662C7.56307 9.72662 7.63323 9.65646 7.63323 9.56992C7.63323 9.48337 7.56307 9.41322 7.47653 9.41322C7.38998 9.41322 7.31982 9.48337 7.31982 9.56992C7.31982 9.65646 7.38998 9.72662 7.47653 9.72662Z" fill="white"/><path d="M7.03776 9.67019C7.11046 9.67019 7.16939 9.61126 7.16939 9.53856C7.16939 9.46586 7.11046 9.40693 7.03776 9.40693C6.96506 9.40693 6.90613 9.46586 6.90613 9.53856C6.90613 9.61126 6.96506 9.67019 7.03776 9.67019Z" fill="white"/><path d="M6.67422 9.50722C6.74346 9.50722 6.79958 9.45109 6.79958 9.38185C6.79958 9.31262 6.74346 9.25649 6.67422 9.25649C6.60499 9.25649 6.54886 9.31262 6.54886 9.38185C6.54886 9.45109 6.60499 9.50722 6.67422 9.50722Z" fill="white"/><path d="M6.34201 9.30665C6.40433 9.30665 6.45484 9.25613 6.45484 9.19382C6.45484 9.13151 6.40433 9.08099 6.34201 9.08099C6.2797 9.08099 6.22919 9.13151 6.22919 9.19382C6.22919 9.25613 6.2797 9.30665 6.34201 9.30665Z" fill="white"/></g><defs><clipPath id="clip0_360_279"><rect width="19.9765" height="3.51641" fill="white" transform="translate(2.36176 7)"/></clipPath></defs></svg>