<svg fill="none" height="50" viewBox="0 0 140 50" width="140" xmlns="http://www.w3.org/2000/svg"><g fill="#fff"><path d="m98.5429 28.739h-1.7441v-2.7897c-.3072-.1125-.5529-.0959-.7987-.0396-.1572.2824.0012.5993-.1288.9099h-.807c-.1312-.2607.0035-.5687-.0863-.8703-.2458-.1329-.5081-.0946-.833-.0102v2.8038h-1.7736v-7.6165c.2541-.1802.5412-.0486.8543-.0869.0201.3258.0378.5942.0544.8651.2469.2019.547.009.8306.1547.0166.2696.0343.5597.0508.8408.2706.1815.5601.0269.8449.1317.0153.2849.0307.5725.0472.8702h.8082c.0142-.2952.0272-.5623.0402-.823.2694-.1814.5636-.0063.8307-.138.1559-.2594-.0012-.575.1063-.8626.2328-.1891.5341.0115.8141-.1482.0154-.2505.0307-.5189.0473-.7962.2623-.1725.5352-.0779.8425-.0805v7.6868z"/><path d="m110.886 12.9469h-4.009c-.144.3238-.099.5911-.055.9162h3.013v1.9521h-2.951c-.145.3341-.121.5975-.04.9278h4.042v1.9713h-6.172v-7.7143h6.172z"/><path d="m90.6075 21.9152c.3468.0193.6553.0374.9925.0567v6.771h-2.0549v-1.8648h-2.0425v1.8609h-2.074v-6.7529c.3029-.0245.6086-.049.9499-.0773.022-.2874.0425-.5581.0658-.8802h4.1043c.0164.2629.0342.5348.0575.8879zm-1.1049 2.9331v-1.8441h-1.9602v1.8441z"/><path d="m103.944 23.8822v1.9747h-2.235c-.12.3382-.042.617-.085.9706h3.09v1.9154h-4.628v-7.7143h4.621v1.923h-2.99c-.129.3188-.068.5899-.059.9306z"/><path d="m85.4286 11.9675c.3243-.0218.6145-.0411.891-.059.2217-.2823 0-.6121.193-.9085h4.028c.0247.2913.0507.5761.078.8956.3299.0244.6392.0462.9814.0719v5.7742c-.3175.0218-.6282.0423-.98.0654-.0233.3054-.0438.5928-.0684.9072h-4.0308c-.2122-.2708.0054-.598-.178-.8982-.2833-.0257-.5899-.0526-.9129-.0809v-5.7677zm4.0759 1.0368h-1.9668v3.7134h1.9668z"/><path d="m80.0306 37.9974v-1.8937h3.033v-.9475h-2.2537c-.0144-.3524-.0257-.6429-.039-.972-.2454-.0181-.4785-.0349-.7362-.053v-2.8128c.2331-.1794.4836-.0271.7465-.1342v-.8985h3.8759v1.917h-2.9919c-.1212.3214-.0462.5989-.0893.9268h2.227c.1961.3214.0452.648.1499.9398.2023.1704.46-.0194.7043.1368v2.7986c-.1981.2104-.463 0-.6848.1446-.1314.2453-.0041.5422-.1037.8507h-3.84z"/><path d="m80.0286 21.9831c.2608-.0154.4794-.0283.73-.0424.0144-.3053.0278-.5953.0423-.9121h3.0953v1.9654h-2.287v3.7795h1.4528c.0547-.2784.0413-.5465.0093-.8223-.2093-.2155-.4774-.0026-.7187-.1809-.0453-.5799-.0381-1.1842.0021-1.8282h2.3024v3.8052c-.199.177-.4588-.0116-.7104.1347-.0175.2681-.035.5542-.0546.8609h-3.0851c-.0144-.2938-.0299-.5825-.0453-.8981-.2434-.018-.4743-.0359-.7331-.0565z"/><path d="m106.257 26.8349h3.036v-.9688h-2.298v-.8566c-.241-.1883-.477-.0361-.728-.1522v-2.8419c.205-.1651.466.0336.708-.1393.01-.258.02-.5302.033-.8475h3.876v1.9311h-3.043c-.062.3432-.065.6089.006.9404h2.263c.027.3496.05.6386.075.9482.238.0219.455.0413.701.0632v2.8393c-.204.2051-.466.0039-.726.1587v.8334h-3.903v-1.9067z"/><path d="m91.6 37.0539c-.3269.0181-.6181.0349-.9107.0517-.2253.2658-.0123.5924-.1662.8944h-4.0808c-.022-.3046-.0426-.5744-.0646-.8777-.3187-.0232-.6071-.0426-.9491-.0671v-5.755c.2843-.1885.6387.018.9573-.1652.0151-.2543.0303-.5279.0495-.8493h4.1234c.0165.2878.033.5782.0522.897.3365.0245.6456.0465.989.071v5.8015zm-2.1208-.9938v-3.7984h-1.9463v3.7984z"/><path d="m98.5429 11h1.7781v2.8503h1.804v-2.84h1.802v2.867c-.27.0205-.539.0424-.834.0655v1.8261c.288.027.556.0527.85.0797v2.8631h-1.801v-2.8426h-1.788v2.8452h-1.8111z"/><path d="m96.866 11c.0192.2997.0372.571.054.8296.265.2083.5744 0 .8514.1813v1.8521h-1.806c-.0168-.2791-.0335-.5492-.0527-.863h-1.6981v3.7079h1.6525c.1787-.2328-.0264-.5672.1463-.8656h1.74v1.9009c-.2662.0271-.536.0554-.8262.0849-.0192.301-.0372.5737-.0576.8862h-3.594c-.0204-.2933-.0395-.5633-.0575-.827-.2555-.2161-.5637-.0077-.8467-.1775v-5.7002c.2555-.1659.5313-.0141.7891-.1247.1919-.2457-.0024-.5762.1499-.8849h3.5568z"/><path d="m83.9236 14.9547c-.0144.2838-.0278.556-.0432.8667h-2.2829v2.8929h-1.5689v-7.7143h3.8076c.1574.2555-.0021.5842.1162.859.2068.1823.4691-.0218.7047.1566v2.7876c-.2201.1965-.5051-.0167-.7335.1515zm-2.3251-1.1068h1.4722c-.0031-.3056.0566-.5791-.0442-.8526h-1.428z"/><path d="m94.217 32.2246c-.066.3674-.0828.6162.012.9295h2.6316v1.9633h-2.6784v2.8826h-1.8108v-7.7143h5.4v1.9389z"/><path d="m103.943 30.2857v1.9524h-1.755v5.7619h-1.884v-5.7451h-1.7611v-1.9692z"/><path d="m115.049 18.7143h-2.107v-5.771h-2.056v-1.9433h6.171v1.8843c-.639.1617-1.305-.0218-2.007.1168v5.7132z"/><path d="m122.2 13.4659c-.24-.4234-.452-.7983-.664-1.1743-.034.0035-.068.0059-.102.0094v1.6406c-.198.1827-.341.1246-.52.1151v-2.9834c.173-.1044.333-.0759.542-.0261.317.5765.648 1.1803 1.018 1.8541.347-.6643.651-1.242.949-1.8114.18-.1329.361-.0902.577-.0498v2.9668c-.102.1257-.266.0735-.509.0308v-1.6358c-.043-.0071-.088-.0143-.131-.0214-.194.3571-.386.7142-.588 1.0854h-.574z"/><path d="m61.5143 27.2v-2.3143h2.3143v2.3143z"/><path d="m26.8 32.6h-3.0857v-3.0857h3.0857z"/><path d="m20.6286 32.6h-1.5429v-2.3143h1.5429z"/><path d="m71.5428 34.9143h-2.3142v-2.3143h2.3142z"/><path d="m66.1429 32.6h2.3142v2.3143h-2.3142z"/><path d="m61.5143 34.9143v-2.3143h2.3143v2.3143z"/><path d="m49.9429 27.2h-2.3143v-2.3143h2.3143z"/><path d="m56.1143 34.9143v-2.3143h1.5428v2.3143z"/><path d="m56.1143 34.9143h-3.0857v-2.3143h3.0857z"/><path d="m39.9143 24.8857v2.3143h-2.3143v-2.3143z"/><path d="m19.0857 32.6h1.5429v2.3143h-1.5429z"/><path d="m18.3143 32.6v2.3143h-2.3143v-2.3143z"/><path d="m63.8286 13.3143h-2.3143v-2.3143h2.3143z"/><path d="m69.2286 24.8857v2.3143h-3.0857v-2.3143z"/><path d="m57.6571 11v2.3143h-1.5428v-2.3143z"/></g><path d="m53.0286 11h3.0857v2.3143h-3.0857z" fill="#febc26"/><path d="m37.6 11h1.5429v2.3143h-1.5429z" fill="#fe740d"/><path d="m20.6286 27.2h-1.5429v-2.3143h1.5429z" fill="#fff"/><path d="m16 24.8857h2.3143v2.3143h-2.3143z" fill="#fff"/><path d="m66.1429 29.5143h2.3142v3.0857h-2.3142z" fill="#fff"/><path d="m69.2286 24.8857h2.3142v2.3143h-2.3142z" fill="#fff"/><path d="m34.5143 13.3143h-2.3143v-2.3143h2.3143z" fill="#fff"/><path d="m20.6286 17.1714v2.3143h-1.5429v-2.3143z" fill="#fff"/><path d="m49.9429 30.2857v2.3143h-2.3143v-2.3143z" fill="#fff"/><path d="m37.6 17.1714h1.5429v2.3143h-1.5429z" fill="#fff"/><path d="m31.4286 13.3143h-1.5429v-2.3143h1.5429z" fill="#fff"/><path d="m47.6286 17.1714h2.3143v2.3143h-2.3143z" fill="#e62479"/><path d="m74.6286 27.2h-2.3143v-2.3143h2.3143z" fill="#fff"/><path d="m23.7143 11h3.0857v2.3143h-3.0857z" fill="#fff"/><path d="m66.1429 17.1714h2.3142v2.3143h-2.3142z" fill="#fff"/><path d="m20.6286 11v2.3143h-1.5429v-2.3143z" fill="#fff"/><path d="m49.9429 19.4857v2.3143h-2.3143v-2.3143z" fill="#fff"/><path d="m19.0857 21.8v-2.3143h1.5429v2.3143z" fill="#fff"/><path d="m39.9143 21.8h-2.3143v-2.3143h2.3143z" fill="#fff"/><path d="m39.9143 21.8v-2.3143h2.3143v2.3143z" fill="#fff"/><path d="m18.3143 21.8h-2.3143v-2.3143h2.3143z" fill="#fff"/><path d="m53.0286 21.8h-2.3143v-2.3143h2.3143z" fill="#fff"/><path d="m69.2286 17.1714h2.3142v2.3143h-2.3142z" fill="#fff"/><path d="m56.1143 19.4857h-3.0857v-2.3143h3.0857z" fill="#fff"/><path d="m16 32.6v-3.0857h2.3143v3.0857z" fill="#fff"/><path d="m72.3143 27.9714h2.3143v1.5429h-2.3143z" fill="#fff"/><path d="m16 24.1143v-2.3143h2.3143v2.3143z" fill="#fff"/><path d="m34.5143 29.5143h-2.3143v-1.5429h2.3143z" fill="#fff"/><path d="m26.8 32.6v-3.0857h2.3143v3.0857z" fill="#fff"/><path d="m56.1143 32.6h-3.0857v-2.3143h3.0857z" fill="#fff"/><path d="m29.8857 32.6v-3.0857h1.5429v3.0857z" fill="#fff"/><path d="m74.6286 32.6h-2.3143v-3.0857h2.3143z" fill="#fe2432"/><path d="m69.2286 32.6v-3.0857h2.3142v3.0857z" fill="#fff"/><path d="m18.3143 19.4857h-2.3143v-2.3143h2.3143z" fill="#fff"/><path d="m32.2 29.5143h2.3143v3.0857h-2.3143z" fill="#e625dd"/><path d="m71.5428 24.1143h-2.3142v-2.3143h2.3142z" fill="#fff"/><path d="m74.6286 24.1143h-2.3143v-2.3143h2.3143z" fill="#1ae693"/><path d="m68.4571 24.1143h-2.3142v-2.3143h2.3142z" fill="#fff"/><path d="m34.5143 19.4857v-2.3143h3.0857v2.3143z" fill="#fff"/><path d="m63.8286 24.1143h-2.3143v-2.3143h2.3143z" fill="#fff"/><path d="m53.0286 32.6h-2.3143v-3.0857h2.3143z" fill="#fff"/><path d="m49.9429 21.8v2.3143h-2.3143v-2.3143z" fill="#fff"/><path d="m50.7143 32.6h2.3143v2.3143h-2.3143z" fill="#1e89e5"/><path d="m37.6 24.1143v-2.3143h1.5429v2.3143z" fill="#fff"/><path d="m60.7428 34.9143h-2.3142v-2.3143h2.3142z" fill="#fff"/><path d="m16 38v-2.3143h2.3143v2.3143z" fill="#fff"/><path d="m56.1143 35.6857v2.3143h-3.0857v-2.3143z" fill="#fff"/><path d="m56.1143 35.6857h1.5428v2.3143h-1.5428z" fill="#fff"/><path d="m60.7428 13.3143h-2.3142v-2.3143h2.3142z" fill="#fff"/><path d="m35.2857 11h2.3143v2.3143h-2.3143z" fill="#fff"/><path d="m26.8 13.3143v-2.3143h2.3143v2.3143z" fill="#fff"/><path d="m61.5143 38v-2.3143h2.3143v2.3143z" fill="#fff"/><path d="m16 27.9714h2.3143v1.5429h-2.3143z" fill="#fff"/><path d="m20.6286 29.5143h-1.5429v-1.5429h1.5429z" fill="#fff"/><path d="m26.8 27.9714v1.5429h-3.0857v-1.5429z" fill="#fff"/><path d="m29.8857 29.5143v-1.5429h1.5429v1.5429z" fill="#fff"/><path d="m20.6286 24.1143h-1.5429v-2.3143h1.5429z" fill="#fff"/><path d="m69.2286 27.9714h2.3142v1.5429h-2.3142z" fill="#fff"/><path d="m39.9143 17.1714h2.3143v2.3143h-2.3143z" fill="#fff"/><path d="m50.7143 19.4857v-2.3143h2.3143v2.3143z" fill="#fff"/><path d="m68.4571 38h-2.3142v-2.3143h2.3142z" fill="#fe740d"/><path d="m53.0286 14.0857h3.0857v2.3143h-3.0857z" fill="#fff"/><path d="m39.9143 27.9714v1.5429h-2.3143v-1.5429z" fill="#fff"/><path d="m49.9429 27.9714v1.5429h-2.3143v-1.5429z" fill="#fff"/><path d="m21.4 13.3143v-2.3143h2.3143v2.3143z" fill="#fff"/><path d="m66.1429 11v2.3143h-1.5429v-2.3143z" fill="#fff"/><path d="m66.1429 24.8857v2.3143h-2.3143v-2.3143z" fill="#fff"/><path d="m21.4 32.6v-3.0857h2.3143v3.0857z" fill="#fff"/><path d="m53.0286 27.2h-2.3143v-2.3143h2.3143z" fill="#fff"/><path d="m39.9143 24.8857h2.3143v2.3143h-2.3143z" fill="#fff"/><path d="m37.6 24.8857v2.3143h-2.3143v-2.3143z" fill="#fff"/><path d="m20.6286 35.6857v2.3143h-1.5429v-2.3143z" fill="#1fbfe6"/><path d="m16 14.0857h2.3143v2.3143h-2.3143z" fill="#681be6"/><path d="m19.0857 16.4v-2.3143h1.5429v2.3143z" fill="#fff"/><path d="m66.1429 32.6v2.3143h-2.3143v-2.3143z" fill="#fff"/><path d="m69.2286 14.0857h2.3142v2.3143h-2.3142z" fill="#fff"/><path d="m66.1429 14.0857h2.3142v2.3143h-2.3142z" fill="#fff"/><path d="m23.7143 14.0857h3.0857v2.3143h-3.0857z" fill="#fff"/><path d="m63.8286 16.4h-2.3143v-2.3143h2.3143z" fill="#fff"/><path d="m29.8857 14.0857h1.5429v2.3143h-1.5429z" fill="#fff"/><path d="m57.6571 16.3988h-1.5428v-2.3131h1.5428v2.3143z" fill="#fff"/><path d="m34.5143 14.0857v2.3143h-2.3143v-2.3143z" fill="#fff"/><path d="m39.1429 16.4h-1.5429v-2.3143h1.5429z" fill="#fff"/><path d="m53.0286 16.4h-2.3143v-2.3143h2.3143z" fill="#fff"/><path d="m37.6 14.0857v2.3143h-2.3143v-2.3143z" fill="#fff"/><path d="m35.2857 27.9714h2.3143v1.5429h-2.3143z" fill="#fff"/><path d="m58.4286 16.4v-2.3143h2.3142v2.3143z" fill="#fff"/><path d="m29.1143 16.3988h-2.3143v-2.3131h2.3143v2.3143z" fill="#fff"/><path d="m66.1429 14.0857v2.3143h-1.5429v-2.3143z" fill="#fff"/><path d="m23.7143 16.4h-2.3143v-2.3143h2.3143z" fill="#fff"/><path d="m42.2286 24.1143h-2.3143v-2.3143h2.3143z" fill="#fff"/><path d="m53.0286 21.8v2.3143h-2.3143v-2.3143z" fill="#fff"/><path d="m26.8 27.9714h2.3143v1.5429h-2.3143z" fill="#fff"/><path d="m21.4 29.5143v-1.5429h2.3143v1.5429z" fill="#fff"/><path d="m58.4286 35.6857h2.3142v2.3143h-2.3142z" fill="#fff"/><path d="m53.0286 27.9714v1.5429h-2.3143v-1.5429z" fill="#fff"/><path d="m63.8286 35.6857h2.3143v2.3143h-2.3143z" fill="#fff"/><path d="m66.1429 24.1143h-2.3143v-2.3143h2.3143z" fill="#fff"/><path d="m118.682 11h1.364c.138.1171.085.2723.094.4503-.188.0167-.349.0299-.554.0478v2.4523c-.127.1899-.232.1326-.383.1063v-2.4607c-.195-.1947-.374-.0561-.546-.1636-.093-.1135-.063-.252.025-.4324z" fill="#fff"/></svg>