<svg fill="none" height="58" viewBox="0 0 140 58" width="140" xmlns="http://www.w3.org/2000/svg"><path d="m107.708 15.3186c-3.517 0-6.955 1.0316-9.8789 2.9643-2.924 1.9328-5.2031 4.6799-6.5489 7.8939s-1.6979 6.7506-1.0118 10.1626 2.3795 6.5461 4.8663 9.0061c2.4867 2.4599 5.6553 4.1351 9.1043 4.8138s7.024.3303 10.273-1.001 6.026-3.5857 7.98-6.4783c1.954-2.8925 2.997-6.2932 2.997-9.7721 0-4.665-1.874-9.1389-5.208-12.4375-3.335-3.2986-7.857-5.1518-12.573-5.1518zm0 33.3352c-3.148.0006-6.225-.9222-8.842-2.6516-2.6173-1.7294-4.6574-4.1877-5.8622-7.0641-1.2049-2.8764-1.5205-6.0416-.9068-9.0954.6138-3.0538 2.1291-5.8589 4.3545-8.0607 2.2255-2.2018 5.0605-3.7014 8.1475-4.309s6.287-.296 9.195.8953c2.908 1.1914 5.394 3.2091 7.142 5.7978 1.749 2.5888 2.682 5.6324 2.682 8.746 0 4.1745-1.676 8.178-4.66 11.1301-2.983 2.9521-7.03 4.6109-11.25 4.6116zm-.536-45.61447c-4.222 3.15638-3.488 7.99687-3.488 7.99687s-2.653-6.81271-6.0988-10.9773621c-.4649 5.3612821 1.2334 12.4648621 1.2334 12.4648621s-2.1575-4.40425-7.4442-4.65077c4.3851 2.49297 6.0862 6.98447 6.4754 8.18937 2.6132-1.5956 5.6012-2.4902 8.6712-2.5954-.346-1.1219-1.576-5.84881.651-10.42757z" fill="#f19021"/><path d="m15.9603 34.6322v3.6813h-1.5485v-9.4844h3.2594c1.1051 0 1.9358.2599 2.4921.7798.5563.5198.8363 1.2317.8401 2.1356 0 .8966-.2852 1.602-.8555 2.1163s-1.394.7714-2.4711.7714zm3.4624-2.8877c0-.5374-.1517-.9473-.4551-1.2299-.3033-.2825-.7896-.4233-1.4588-.4224h-1.5485v3.2908h1.5485c1.275 0 1.9129-.5462 1.9139-1.6385zm7.9721 6.569-2.39-3.7879h-1.1005v3.7879h-1.5485v-9.4844h3.3827c1.0948 0 1.9255.2641 2.4921.7922.5666.5282.8494 1.2271.8485 2.0969 0 .7387-.2105 1.3476-.6315 1.8268-.4209.4792-1.0276.7834-1.8201.9127l2.5202 3.8558zm-3.4905-4.8765h1.7081c1.2508 0 1.8757-.5462 1.8748-1.6385 0-.5189-.1517-.9242-.4551-1.216-.3038-.2908-.7756-.4363-1.4197-.4363h-1.7081zm12.2914 2.8212h-4.0477l-.7336 2.0553h-1.6563l3.531-9.3362h1.7795l3.517 9.3362h-1.6577zm-.4354-1.1814-1.5891-4.432-1.5891 4.432zm10.6476-5.4956c.7601.5553 1.2948 1.3607 1.5079 2.2713h-1.6297c-.2031-.5045-.5623-.9326-1.0263-1.2229-.5057-.3132-1.0934-.4721-1.6899-.457-.5649-.0092-1.1216.1345-1.6101.4155-.4778.28-.8642.6901-1.113 1.1813-.2768.5618-.4118 1.1815-.3935 1.8061-.0181.6461.1216 1.287.4075 1.8683.2534.5007.6529.9146 1.1466 1.1883.5267.2831 1.1186.4263 1.7179.4155.7523.013 1.4826-.2516 2.0484-.7423.5693-.4875.9133-1.1569 1.0318-2.0083h-3.5212v-1.1287h4.8205v1.4639c-.1017.6823-.3593 1.3326-.7533 1.9016-.3996.5743-.9356 1.0427-1.561 1.3642-.6864.3486-1.4492.5237-2.2206.5097-.8653.0175-1.7194-.1959-2.4725-.6177-.7064-.4027-1.2812-.9973-1.6563-1.7132-.3842-.7806-.5839-1.6373-.5839-2.5055 0-.8681.1997-1.7249.5839-2.5054.3735-.7131.9459-1.3052 1.6493-1.7063.752-.4176 1.6033-.6285 2.4655-.6108 1.1416 0 2.0922.2775 2.852.8324zm12.6301-.6039v9.3362h-1.5624v-6.9983l-2.7288 6.9983h-1.3581l-2.7442-6.9983v6.9983h-1.547v-9.3362h1.8733l3.1235 7.4554 3.069-7.4554zm7.5773 7.2809h-4.0406l-.7337 2.0553h-1.6619l3.531-9.3362h1.7781l3.5184 9.3362h-1.6577zm-.434-1.1814-1.5891-4.432-1.5891 4.432zm9.4519-6.2477v1.2354h-2.6755v8.249h-1.5625v-8.249h-2.6602v-1.2354zm2.376 0v9.4844h-1.5471v-9.4844zm8.7603.7922c.7856.6021 1.341 1.4504 1.5751 2.4058h-1.6437c-.2099-.5535-.5867-1.0298-1.0795-1.3643-.5375-.3484-1.1707-.5245-1.8131-.5041-.5388-.0085-1.0688.1357-1.5275.4155-.4585.2904-.8257.702-1.0598 1.1883-.2548.5668-.3864 1.1802-.3864 1.8005s.1316 1.2337.3864 1.8005c.2337.4869.6009.8991 1.0598 1.1897.4587.2799.9887.4241 1.5275.4155.6423.0208 1.2754-.1548 1.8131-.5028.4901-.3312.8666-.8022 1.0795-1.3503h1.6437c-.2327.9537-.7886 1.7997-1.5751 2.3974-.7784.5872-1.7562.8808-2.9332.8808-.8426.0158-1.6737-.1958-2.4039-.6121-.6934-.4031-1.2544-.9956-1.6157-1.7063-.3761-.7829-.5713-1.6387-.5713-2.5055 0-.8667.1952-1.7226.5713-2.5054.3626-.7116.9232-1.306 1.6157-1.7132.7289-.42 1.5605-.6337 2.4039-.6177 1.1761.0009 2.1538.2968 2.9332.8877zm8.8793 5.0109v3.6813h-1.5471v-9.4844h3.2594c1.1033 0 1.934.2599 2.4922.7798.5577.5198.8377 1.2317.8397 2.1356 0 .8966-.285 1.602-.8551 2.1163-.5703.5143-1.394.7714-2.4712.7714zm3.4681-2.8877c0-.5374-.1517-.9473-.4551-1.2299-.3033-.2825-.7901-.4233-1.4603-.4224h-1.5527v3.2908h1.5485c1.2797 0 1.9196-.5462 1.9196-1.6385zm4.2321 5.3738h3.314v1.1952h-4.862v-9.4844h1.548zm10.403-.8601h-4.046l-.734 2.0553h-1.658l3.533-9.3362h1.778l3.518 9.3362h-1.657zm-.434-1.1814-1.589-4.432-1.589 4.432zm9.04-6.2477-3.191 6.0316v3.4528h-1.558v-3.4528l-3.205-6.0316h1.794l2.201 4.3932 2.199-4.3932z" fill="#fff"/></svg>