<svg fill="none" height="50" viewBox="0 0 140 50" width="140" xmlns="http://www.w3.org/2000/svg" xmlns:xlink="http://www.w3.org/1999/xlink"><linearGradient id="a"><stop offset="0" stop-color="#62e4b8"/><stop offset="1" stop-color="#a8a8a8"/></linearGradient><linearGradient id="b" gradientUnits="userSpaceOnUse" x1="15.3769" x2="14.7628" xlink:href="#a" y1="20.9069" y2="33.3594"/><linearGradient id="c" gradientUnits="userSpaceOnUse" x1="15.3769" x2="14.7628" xlink:href="#a" y1="32.2531" y2="44.7056"/><radialGradient id="d" cx="0" cy="0" gradientTransform="matrix(12.4038 0 0 12.6183 11.6413 21.8535)" gradientUnits="userSpaceOnUse" r="1"><stop offset="0" stop-color="#2fbe7b"/><stop offset=".99" stop-color="#38dca8"/><stop offset="1" stop-color="#787878"/></radialGradient><path d="m32.5629 15.883h13.3335v3.1342h-9.8561v4.5571h6.5575v3.1343h-6.5575v5.1139h10.174v3.1342h-13.6315v-19.0737zm12.6579 5.5056h3.537l3.0999 9.4647 2.8813-9.4647h3.4377l-4.769 13.5681h-3.1794zm12.4393 6.8253c0-4.1447 2.762-7.0728 6.7363-7.0728 3.9344 0 6.6965 2.9281 6.6965 7.0728 0 4.0828-2.8217 7.0109-6.7959 7.0109-3.9345 0-6.6369-2.8662-6.6369-7.0109zm9.9355.0825v-.1237c0-2.5776-1.2121-4.1447-3.2191-4.1447-2.0269 0-3.239 1.5465-3.239 4.1447v.1237c0 2.5363 1.1923 4.0209 3.1794 4.0209 2.0268 0 3.2787-1.4846 3.2787-4.0209zm5.0671-12.6815h3.4576v19.3418h-3.4576zm5.4248 13.9187v-8.145h3.4377v7.9388c0 1.8146.8346 2.8662 2.3846 2.8662 1.8082 0 2.5434-1.5877 2.5434-3.9178v-6.9078h3.4377v13.5681h-3.4377v-1.9177c-.6954 1.4022-1.8877 2.1858-3.5767 2.1858-2.9608.0206-4.789-2.1651-4.789-5.6706zm14.9431 1.8352v-7.0934h-1.848v-2.8662h1.848v-2.5775l3.3582-1.959v4.5159h2.5832v2.8662h-2.6031v6.7635c0 .6598.2981.9485.934.9691h1.53v2.9693h-2.6627c-2.5236-.1237-3.08-1.3403-3.1396-3.5879zm7.4914-15.424h3.577v3.4849h-3.577zm.06 5.4438h3.457v13.5681h-3.457zm5.027 6.8253c0-4.1447 2.762-7.0728 6.736-7.0728 3.935 0 6.697 2.9281 6.697 7.0728 0 4.0828-2.822 7.0109-6.796 7.0109-3.915 0-6.637-2.8662-6.637-7.0109zm9.955.0825v-.1237c0-2.5776-1.212-4.1447-3.219-4.1447-2.027 0-3.239 1.5465-3.239 4.1447v.1237c0 2.5363 1.193 4.0209 3.18 4.0209 2.026 0 3.278-1.4846 3.278-4.0209zm5.028-6.9078h3.437v2.2064c.696-1.5878 1.968-2.4951 3.816-2.4951 2.861 0 4.55 1.9796 4.55 5.7118v8.145h-3.438v-7.9388c0-1.897-.695-2.8662-2.305-2.8662-1.629 0-2.623 1.3816-2.623 3.9179v6.9078h-3.437z" fill="#62e4b8"/><path d="m7.7041 15.3244c6.4978-3.545 14.9179.1933 15.5514 9.2186-12.0751.9663-13.52896-4.5776-15.5514-9.2186z" fill="url(#b)"/><path d="m7.7041 34.6756c6.4978 3.545 14.9179-.1933 15.5514-9.2186-12.0751-.9663-13.52896 4.5748-15.5514 9.2186z" fill="url(#c)"/><path d="m20.8888 18.8336c-3.0537-4.1338-8.6508-5.3094-13.28397-2.7934 1.8063 4.1365 3.15897 8.99 12.07167 9.2674.8542-1.5674 1.3012-3.3305 1.2987-5.1226-.0006-.4519-.0295-.9032-.0864-1.3514zm-11.09967 11.9015c.26997.0192.51837.0329.78297.0329 3.4845.0016 6.7379-1.7733 8.6643-4.7271-5.3568.2665-7.8759 2.2468-9.44727 4.6942z" fill="url(#d)"/></svg>