<svg fill="none" height="50" viewBox="0 0 140 50" width="140" xmlns="http://www.w3.org/2000/svg"><path clip-rule="evenodd" d="m0 13h20v25h-20zm4.84404 21.2044v-16.6789h4.91743c1.72473 0 3.08253.365 4.03673 1.1314.9541.7665 1.4679 1.8978 1.4679 3.3942 0 .7299-.1835 1.4598-.5138 2.1168-.367.6204-.9174 1.0949-1.578 1.3868.8074.146 1.5413.657 1.945 1.3504.4403.7299.6605 1.5694.6238 2.4088 0 1.6058-.4403 2.8102-1.3578 3.6131-.9174.8029-2.2385 1.2409-3.9266 1.2409zm3.04587-7.3723v4.781h2.31189c.5872.0365 1.1376-.1824 1.5413-.5839.367-.4745.5505-1.0949.5138-1.7153.0367-.6205-.1101-1.2774-.4404-1.8248-.3303-.438-.844-.6935-1.3945-.657zm0-2.2628h1.79816c.58713.0365 1.13763-.1824 1.54133-.5839.3669-.438.5871-1.0219.5137-1.6058.0367-.6205-.1468-1.2409-.5504-1.7154-.4404-.4014-1.0643-.5839-1.65142-.5474h-1.65137z" fill="#ffca42" fill-rule="evenodd"/><path d="m42.0163 38h-1.1968v-25h1.1968zm20.7935 0h-1.1968v-25h1.1968zm20.7561 0h-1.1968v-25h1.1968zm20.7931 0h-1.159v-25h1.159zm20.831 0h-1.197v-25h1.197zm-88.9331-6.5424c-.4488.7675-1.1219 1.3889-1.9073 1.8275-1.0098.5848-2.2065.8406-3.3659.8041-1.7951 0-3.2536-.5483-4.3382-1.6082-1.0845-1.0599-1.6455-2.5585-1.6455-4.5322v-4.9342c0-1.9371.5236-3.4357 1.5707-4.4956 1.0472-1.0599 2.4309-1.6082 4.1513-1.5716 1.7577 0 3.0666.4386 4.0016 1.2792.9349.8407 1.4211 2.0468 1.4959 3.6184l-.0374.0731h-2.2439c-.0374-1.0599-.2992-1.864-.8228-2.3757-.5235-.5117-1.3089-.8041-2.3187-.8041-.9349-.0365-1.8699.3655-2.4682 1.0965-.5984.731-.8976 1.7909-.8976 3.1798v4.9708c0 1.4254.3366 2.5219.9724 3.2529.6357.731 1.6081 1.1696 2.6178 1.133.6732.0366 1.309-.1096 1.9074-.402.4113-.2558.7853-.6213 1.0097-1.0234v-3.8377h-2.9171v-1.6813h5.3106v6.0307zm13.239-3.326h4.3382l-2.0943-7.31h-.0748zm4.8992 1.8275h-5.4227l-1.2342 4.2032h-2.4309l5.2358-16.6667h2.3187l5.1984 16.6667h-2.4309zm14.174-12.4635 4.0016 13.5965h.0748l4.0017-13.5965h3.0666v16.6667h-2.3561v-6.3962l.187-6.3962-.0748-.0366-4.0764 12.829h-1.5707l-4.1139-12.7924h-.0374l.187 6.3962v6.3962h-2.3561v-16.6667zm25.9171 16.6667h-2.3561v-16.6667h2.3561zm25.6178 0h-2.393l-6.47-12.3904h-.075v12.3904h-2.356v-16.6667h2.356l6.47 12.3538h.075v-12.3538h2.393zm19.896-2.595c-.486.7675-1.122 1.3888-1.907 1.8274-1.01.5848-2.207.8407-3.366.8041-1.795 0-3.216-.5117-4.338-1.5716-1.085-1.0599-1.646-2.5585-1.646-4.5322v-5.0073c0-1.9371.524-3.4357 1.571-4.4956s2.431-1.6082 4.114-1.6082c1.757 0 3.066.4386 4.001 1.2793.935.8406 1.421 2.0467 1.496 3.6184l-.037.0731h-2.244c-.037-1.06-.299-1.8275-.823-2.3758-.523-.5482-1.309-.804-2.319-.804-.935-.0366-1.869.3655-2.468 1.0964-.598.731-.897 1.791-.897 3.1799v4.9707c0 1.4255.336 2.522.972 3.253.636.7309 1.608 1.1695 2.618 1.133.673.0365 1.309-.1097 1.907-.4021.412-.2558.786-.6213 1.01-1.0233v-3.8012h-2.917v-1.6813h5.273z" fill="#e0e1e4"/></svg>