<svg fill="none" height="55" viewBox="0 0 140 55" width="140" xmlns="http://www.w3.org/2000/svg"><g fill="#fff"><path d="m27.4995 21.9429-1.4349 1.2127 1.0092 1.2128-.2168 1.2122-2.1531 1.8194h-3.0467l.2173-1.2133h1.8291l.716-.6061.2168-1.2122-.5021-.6067h-1.8302l.2107-1.21h1.8285l.7178-.6061.1083-.6066h-3.0483l-.7177.6039-.9655 5.4571h-2.4379l.9649-5.4571 2.1526-1.8189h6.7061l-.3257 1.8189h.0011zm8.3821 5.4571h-6.7056l-1.5023-1.8194.9621-5.456h2.4385l-.9649 5.456.5015.6061h3.0478l1.0733-6.0621h2.4385l-1.2889 7.2759zm9.5625-1.2133-.2167 1.2133h-8.5336l1.2889-7.276h2.4407l-1.0754 6.0627zm9.347 0-.2174 1.2133h-8.5329l1.2894-7.276h2.4407l-1.0755 6.0627zm9.9877-3.6344h-2.4407l.2168-1.2133h-3.0456l-.7177.6039-.318 1.8188h6.0962l-.2167 1.2128h-6.0951l-.2168 1.2122h6.0973l-.2173 1.2133h-8.5302l.9649-5.4571 2.1498-1.8189h6.7055l-.434 2.4261.0022.0027zm9.5631-1.2133h-3.0483l-1.0727 6.061h-2.4407l1.0727-6.0632h-3.045l.2134-1.2128h8.5346l-.2173 1.2128.0033.0027zm9.0229 1.8194-2.1459 1.8188h-3.0473l.2168-1.2127h1.8291l.7111-.6061.3251-1.8194h-3.0483l-.7172.6066-.9649 5.4566h-2.4412l.9648-5.4566 2.1527-1.8216h6.7049l-.5424 3.0316zm9.3475 0-2.1465 1.8188h.6099l.3931 1.2122h.6099l-.2173 1.2128h-2.4407l-.7873-2.4277h-1.2193l.2168-1.2128h1.8313l.7111-.6061.3251-1.8188h-3.0489l-.7172.6061-.9654 5.4571h-2.4407l.9649-5.4571 2.1554-1.8189h6.7038l-.5424 3.0316zm8.9217 2.4249-2.1531 1.8189h-6.705l.9627-5.4593 2.1548-1.8189h6.7056l-.965 5.456zm-4.7376-4.2443-.7171.6039-.7487 4.2438h3.0472l.7177-.6061.7498-4.2438-3.0489.0027zm14.0836 4.2443-2.152 1.8189h-6.705l.965-5.4566 2.152-1.8216h6.706l-.966 5.456zm-4.736-4.2443-.718.6066-.75 4.2438h3.049l.717-.6061.75-4.2443zm14.615 1.2133h-2.441l.217-1.2133h-3.048l-.718.6066-.317 1.8189h6.096l-.217 1.2127h-6.091l-.434 2.4277h-2.441l.965-5.4565 2.157-1.8244h6.706zm-30.6609 8.0789c-.0127-.2497-.0957-.4268-.2488-.5318-.149-.1039-.3268-.1589-.5087-.1573h-.13c-.1789.0179-.3527.0698-.512.1529-.1378.0633-.2576.16-.3484.281-.0672.1084-.1294.2198-.1863.3339-.0749.15-.1341.3071-.1769.4691-.0387.143-.0592.2893-.0603.4373-.0072.2255.0652.446.2046.6242.136.1694.3456.2574.6276.264.282 0 .5418-.1105.7791-.3311.2372-.22.3793-.4631.4257-.7282l.0072-.0258c.0006-.0085.0006-.0169 0-.0253h-.9909l.0653-.2541h1.2507l-.3251 1.5169h-.256l.0973-.44c-.1071.147-.247.2675-.4086.352-.1595.0844-.3326.1406-.5115.1661-.0718.012-.1445.0185-.2173.0192-.2685.0015-.5291-.0901-.737-.259-.2168-.1727-.3263-.4472-.3279-.8234.0007-.0986.0092-.197.0254-.2942.0184-.1113.0424-.2217.0719-.3306.1089-.3976.2798-.7045.5142-.9207.2062-.1997.4597-.3445.7371-.4207.1184-.0305.2403-.0459.3627-.0457.2682-.0044.5303.0792.7459.2376.2068.1397.3296.374.3257.6221v.1083zm6.2687 2.0306-.1576-.9113h-1.2839l-.5391.9113h-.3163l1.7484-2.9463h.3256l.5392 2.9463zm-.4495-2.6317-.856 1.4564h1.1164zm7.6127 2.6317h-.326l.578-2.5668-1.506 2.5668h-.284l-.379-2.5668-.55 2.5668h-.316l.638-2.9133h.45l.38 2.5388 1.507-2.5388h.44zm6.858-2.6642h-1.623l-.233 1.0175h1.507l-.065.2541h-1.502l-.256 1.1429h1.695l-.065.2497h-1.981l.632-2.9133h1.953l-.065.2497zm6.036.5687-.284-.0044c0-.0066.001-.0126.003-.0187 0-.0077 0-.0154 0-.0231.003-.0154.005-.0308.006-.0462.001-.0137.001-.0275 0-.0412.002-.0716-.013-.1426-.044-.2071-.031-.0646-.077-.1208-.134-.1642-.12-.0952-.269-.1457-.422-.143-.044 0-.088.0044-.132.0116-.046.0084-.092.0199-.137.0346-.028.0094-.054.0193-.083.0303s-.057.0242-.084.0385c-.084.0489-.159.1105-.221.1837-.063.0698-.109.1535-.133.2442-.006.0183-.011.0373-.014.0566-.003.0191-.005.0384-.005.0578.003.1017.047.198.124.2662.082.0825.218.1402.407.1743.378.077.639.1832.786.319.145.1364.217.2805.217.4318 0 .0385-.005.077-.012.1138-.008.0385-.018.0765-.03.1133-.026.0693-.058.1361-.095.1997-.04.066-.085.1298-.133.1903-.097.1085-.219.1911-.356.2403-.188.0767-.387.1213-.59.132-.029.0017-.06 0-.091 0-.214.0039-.424-.055-.605-.1688-.177-.1122-.265-.2998-.265-.5621 0-.0341 0-.0721.007-.1155.007-.0429.011-.0864.017-.1293v-.0027h.283v.0737c-.003.0097-.005.0199-.005.0302v.0303c0 .2035.06.347.18.4317.116.0825.251.1331.393.148h.149c.014 0 .027-.0017.04-.005.089-.0042.178-.0181.265-.0412.126-.0347.242-.1007.335-.1925.098-.0951.165-.2183.19-.3526.003-.0237.005-.0476.005-.0715 0-.0792-.021-.1572-.061-.2255-.041-.0703-.108-.1226-.186-.1463-.008-.0024-.017-.0053-.025-.0088l-.026-.0093c-.082-.0301-.165-.057-.249-.0809-.08-.0226-.16-.0464-.239-.0715-.18-.0487-.353-.1189-.516-.209-.14-.0808-.209-.2123-.21-.3943.007-.1374.036-.2727.087-.4004.071-.1689.196-.3091.357-.3982.17-.1045.361-.1727.56-.2008.03-.0055.06-.0093.09-.011h.091c.199-.0044.394.0561.556.1716.16.115.239.2981.24.5495v.083c-.001.0296-.004.0591-.01.088z"/><path d="m50.4908 27.8344c1.1695 5.0518 3.0965 9.8807 5.7821 14.487 2.6851 4.6057 5.7191 8.8325 9.1031 12.6786-4.9914-3.6476-9.0068-7.5108-12.0464-11.5896-3.0395-4.0783-5.4487-9.2702-7.2269-15.576zm34.9343 0c-.9765 3.4051-1.8872 5.9516-2.7326 7.6395-.8455 1.6885-2.2488 3.971-4.2107 6.8475 1.5289-3.2884 2.647-5.8157 3.3542-7.5817.7066-1.7656 1.342-4.0673 2.0691-6.9053zm-19.3352-27.8344c7.9269 0 15.2346 1.23805 21.9235 3.7147.5513 5.75465.3467 10.9972-.6121 15.7278h-.6712c-.7194.693-1.6307 1.1963-1.707 1.2667.1222-1.9289.6359-6.9201.5137-14.72905-8.6187-1.3695-15.1008-1.98495-19.4458-1.84635-6.5181.2079-13.5554 1.2496-17.1329 3.0349 0 4.1432.1161 8.2346.3478 12.2738h-2.3329c-.303 1.3436-.7575 3.4601-1.3641 6.3498-1.9862-7.6945-2.6375-15.0535-1.9524-22.0776 7.0279-2.4772 14.5053-3.7147 22.4328-3.7147z"/></g></svg>