<svg fill="none" height="50" viewBox="0 0 140 50" width="140" xmlns="http://www.w3.org/2000/svg"><path d="m26.6303 36.7976c-.2835.8875-.7441 1.6685-1.5768 2.1655-1.7363 1.0473-4.0395.4261-5.1379-1.4023-.9567-1.5975-1.0985-3.3193-.6201-5.0944.4429-1.6508.9213-3.2839 1.311-4.9524-.3189.7987-.6732 1.5975-.9567 2.414-.8504 2.3786-1.7539 4.7395-2.498 7.1536-.3189 1.0473-.3367 2.201-.4961 3.3016-.0532.355-.0532.7278-.0886 1.0828-.0354.3372-.2303.5325-.6024.5325h-.1063c-1.0984.0178-1.1516-.1065-1.1339-1.207.0709-2.7159 1.0808-5.1122 2.3564-7.4553 1.0807-1.9881 2.126-3.9939 3.189-5.9998.6733-1.2602.6733-2.5383-.2303-3.6566-.4429-.5503-1.0984-.994-1.754-1.2958-.9921-.4793-2.0728-.8343-3.1181-1.2248-1.3642-.497-2.7639-.9585-4.1989-1.4555 2.3209-3.2307 4.004-6.7631 5.0316-10.7037 3.2776 2.3608 6.8032 4.0472 10.7009 5.0767-1.8071 2.7158-3.4725 5.4495-4.2343 8.6446.0886-.1243.1949-.2485.2835-.3905.9567-1.5976 1.9134-3.1774 2.8701-4.775.6201-1.0118 1.2756-2.0058 2.2855-2.6803 1.2579-.8521 2.6044-1.3313 4.1457-.8521 1.9135.6036 2.9233 2.3786 2.445 4.3312-.0177.0888-.0355.1775-.0709.3905 1.1162-.9763 1.4351-2.2366 1.7894-3.5856.7795 1.9881 1.5414 3.8874 2.3386 5.9287-1.1161-.8698-2.2146-1.4733-3.6674-1.42.1418.1242.1949.1775.2481.213 2.2323 1.349 2.1969 4.6151.0177 6.1239-1.6122 1.1006-3.3839 1.2958-5.2265.8166-2.002-.5325-3.9863-1.1006-5.9706-1.6508-.1949-.0533-.372-.0888-.6201-.0533.3544.2485.7087.497 1.0631.7278 1.5236.923 3.0473 1.8106 4.5709 2.7336 1.5237.923 2.6575 2.1656 3.1182 3.9584.6732 2.6448-1.3642 5.0767-3.9686 4.7039-.4784-.0532-.9567-.284-1.4882-.4437zm97.4427-24.283c.089.3018.053.4793-.266.4438-.159-.0177-.336 0-.496.0177-.62.0888-.886.6213-.549 1.1538.815 1.2603 1.63 2.5029 2.498 3.8164.354-.426.691-.8165.992-1.2248.496-.639 1.01-1.2603 1.435-1.9348.62-.994.213-1.7395-.956-1.8283-.302-.0177-.443-.0888-.319-.426h5.297c.106.3905.106.4083-.23.426-.727.0355-1.294.3728-1.737.9053-1.293 1.5088-2.568 3.0354-3.826 4.5797-.071.0887-.089.355 0 .4615 1.523 2.2721 3.047 4.5264 4.588 6.7807.39.5681.833 1.0651 1.559 1.2071.107.0177.178.1952.337.3905-.283.0177-.425.0355-.567.0355h-6.307c-.142 0-.301-.1065-.443-.1598.142-.1065.266-.213.407-.284.266-.1242.585-.1597.78-.355.124-.1242.159-.5148.053-.6745-.921-1.4733-1.878-2.9111-2.905-4.4554-1.046 1.349-2.056 2.5738-2.977 3.8696-.496.71-.212 1.3313.638 1.5443.248.071.531.0533.779.1065.124.0355.231.1598.337.2485-.035.0355-.053.0888-.089.1243h-5.757c.141-.1953.212-.3905.318-.4083 1.329-.1952 2.109-1.136 2.906-2.059 1.134-1.3491 2.232-2.7159 3.384-4.1005-.815-1.207-1.63-2.3963-2.445-3.5856-.709-1.0473-1.417-2.0946-2.144-3.1419-.336-.497-.726-.8875-1.329-1.0118-.088-.0177-.159-.1952-.23-.284.106-.0532.195-.1597.301-.1597 2.304-.0178 4.624-.0178 6.963-.0178zm-41.67 0v4.349c-.2835.1065-.4429.0355-.4784-.2663 0-.0178 0-.0355-.0177-.0533-.5846-2.2543-1.4173-2.9643-3.7382-3.1241-.7973-.0532-1.5946-.0177-2.445-.0177v5.9287c.8682.2308 1.9312-.142 2.3387-.9763.3189-.6568.4606-1.42.7086-2.1301.0532-.142.1949-.2307.3012-.355.0355.0355.0886.071.124.1065v7.6328c-.3011.1243-.372.0355-.4606-.2663-.1949-.7277-.4075-1.4555-.7441-2.1123-.4607-.8875-1.3465-.994-2.3032-.9585v1.846c0 1.1183.0177 2.2366.0177 3.3549 0 .4793.2126.8876.691.9408 1.8248.2308 3.6319.213 5.1202-1.1005.7086-.6213 1.1338-1.4378 1.4173-2.3254.0709-.2485.1594-.4437.5138-.284-.2126 1.5088-.4252 3.0354-.6555 4.6329h-12.207c-.0531 0-.1063.0178-.1417 0-.124-.0532-.248-.1242-.372-.1952.124-.071.2303-.1775.3543-.1953.2303-.0532.4961-.0355.7264-.0887.6201-.142.8858-.4615.9213-1.1006.0354-.6035.0531-1.207.0531-1.8283v-9.0351c0-.1775 0-.355-.0177-.5502-.0709-.9586-.4961-1.3313-1.4528-1.3669-.1949-.0177-.5846.1953-.5846-.213 0-.4082.372-.213.5846-.213 3.7205-.0177 7.4588-.0177 11.1793-.0177.1772-.0178.3367-.0178.567-.0178z" fill="#9b1a30"/><path d="m10.6674 28.3838c-1.24019.6035-1.54138 1.8283-1.94886 3.0531-.58466-1.6686-1.1516-3.2662-1.71854-4.8637 1.00986.6745 2.00201 1.2603 3.4016 1.0828-1.7185-.8698-2.44489-2.1124-1.84251-3.8874.37205-1.0651 1.41734-1.7396 2.55121-1.7751 1.2579-.0177 2.1438.639 2.817 2.1123 1.2225-.9052 2.4804-1.0473 3.7383-.0887.9212.71 1.2579 1.8993.9212 3.0176-.3543 1.207-1.2933 1.8461-2.9764 2.0413.2658.8698.3189 1.7751-.2303 2.5384-.3189.4437-.7796.8698-1.2579 1.1183-1.063.568-2.3741.2662-3.2068-.6213-.93897-.9763-1.00983-2.1833-.248-3.7276zm55.4715-15.8691v4.3844c-.2126-.1775-.4075-.2663-.4429-.3905-.6555-2.3786-1.2933-2.9289-3.756-3.0887-.8327-.0532-1.6654-.0177-2.5512-.0177v5.982c1.4528.3017 2.7815-.4083 3.2776-1.7751.1063-.284.1417-.568.2303-.852.0532-.1775.1772-.3373.2658-.5148.0708.1952.1949.3728.1949.568.0177 1.6331 0 3.2661 0 4.8814 0 .5503.0177 1.0828-.0178 1.6331 0 .1243-.124.2485-.1948.355-.0709-.1065-.1949-.213-.2126-.3195-.0886-.3373-.1241-.6745-.2126-1.0118-.443-1.491-1.7717-2.3076-3.384-2.0591v2.3964c0 .852 0 1.704.0177 2.5738.0355 1.1716.4253 1.5798 1.6123 1.6153h.3898c.0354.3906.0354.4083-.3544.4083h-5.6162c-.4607 0-.9213.0178-1.382-.0177-.1063 0-.2126-.142-.3366-.213.0177-.0533.0532-.0888.0709-.1421.3012-.0177.6201-.0355.9213-.0887.7441-.1243 1.0276-.426 1.1161-1.1716.0355-.2307.0355-.4615.0355-.6922 0-3.4969 0-6.976-.0177-10.4729 0-1.1716-.4252-1.5621-1.5768-1.5798-.1418 0-.2835-.0178-.4252-.0178-.1595-.3905.0531-.426.3543-.426h11.4451c.1594.0532.3366.0533.5492.0533zm29.3569.0177v.4438c-.3367 0-.6379-.0178-.9568 0-.7441.0532-1.1161.426-1.2224 1.1715-.0177.1243-.0355.2663-.0355.3905 0 3.5324-.0177 7.0825.0178 10.6149.0177 1.1006.2834 1.2958 1.3819 1.3313.7795.0178 1.5768.0178 2.3563-.0355 1.2934-.071 2.2324-.7455 2.817-1.8815.3539-.6568.6019-1.3846.8679-2.0946.107-.284.213-.426.567-.284-.177 1.6863-.354 3.3726-.549 5.0944-.177.0178-.319.0178-.478.0178h-12.1719c-.2126 0-.5492.1242-.4429-.3551.3189-.0355.6732-.0532 1.0099-.1065.6555-.1242.9212-.4437 1.0098-1.1005.0354-.2308.0354-.4615.0354-.6923v-10.2776c0-.1598 0-.3373-.0177-.497-.0531-.8876-.4783-1.2958-1.3642-1.3313h-.6555v-.426c2.6221.0177 5.2265.0177 7.8309.0177zm17.5932 14.5201c-.107.0887-.213.2485-.319.2485-2.374.0177-4.766.0177-7.14 0-.106 0-.231-.1598-.337-.2308.036-.0355.053-.071.089-.1065.372-.0533.744-.071 1.116-.142.567-.1243.833-.4615.886-1.0473.018-.1775.017-.355.017-.5503v-10.6149c0-1.278-.354-1.6153-1.647-1.6685-.142 0-.284-.1243-.425-.1953.141-.0887.283-.2307.425-.2307 2.303-.0178 4.606-.0178 6.892 0 .141 0 .265.1242.407.1952-.142.071-.283.1953-.443.2308-.283.071-.584.0532-.868.1242-.461.142-.691.4793-.744.9408-.035.3195-.053.6568-.053.9763v9.8339c0 .213.018.426.035.639.089 1.0118.461 1.3845 1.489 1.4378.177.0177.354.0177.531.0177.035.071.053.1066.089.1421z" fill="#9b1a30"/><path d="m88.3027 37.6318c.1418-.3017.2481-.5147.3366-.7277.691-1.6864 1.3997-3.3727 2.0729-5.059.124-.3195.3012-.4615.6555-.4437.939.0177 1.878 0 2.817.0177.1418 0 .3012.0355.4429.0888-1.2401.426-1.2401.426-1.2401 1.8105v5.5205c0 1.4023 0 1.4023 1.3464 1.9348h-4.8012c0-.0177-.0177-.0355-.0177-.071.0531-.0177.1063-.0532.1594-.0532 1.0276-.2131 1.0985-.2841 1.0985-1.3313v-6.8518c-.0355-.0178-.0709-.0178-.1241-.0355-1.1693 2.7868-2.3563 5.5915-3.5256 8.3783h-.1418c-1.187-2.7691-2.374-5.5205-3.561-8.2896-.0355 0-.0709 0-.1063.0178-.0178.1598-.0355.3373-.0355.497v6.0175c0 1.1183.0709 1.2248 1.1871 1.5621.0354.0177.0708.0532.1771.142h-3.1004c0-.0178-.0177-.0355-.0177-.0533.1063-.0355.2126-.1065.3189-.1243.6909-.1775.9389-.4615.9389-1.1715v-6.6565c0-.8165-.1948-1.0295-1.0452-1.1183-.0709 0-.1418-.0355-.2126-.1597.1417-.0178.3011-.0533.4429-.0533.9567 0 1.9134.0178 2.8524-.0177.3543 0 .5138.1242.6555.4437.7441 1.7751 1.5059 3.5324 2.2501 5.3075.0177.1242.0708.2485.1771.4792zm42.8573-6.337v3.1774l-.106.0533c-.089-.1598-.16-.3018-.249-.4615-.673-1.4024-1.683-2.2899-3.295-2.3254-1.134-.0177-2.002.497-2.445 1.5088-.832 1.8993-.85 3.8697-.071 5.8045.62 1.5443 2.445 1.8106 3.792 1.2958.106-.0355.195-.2485.195-.3905.017-.5681.017-1.1538.017-1.7218 0-.7811-.124-.9408-.885-1.1006-.089-.0177-.178-.0532-.266-.1597h4.429c0 .0355.018.0532.018.0887-.089.0355-.177.0888-.266.1065-.602.1243-.797.355-.797.9763 0 .5858.017 1.1893-.018 1.7751 0 .142-.106.3727-.23.4082-2.073.7811-4.164 1.1361-6.254.1598-2.038-.9408-2.888-2.6804-2.64-5.0767.195-1.8461 1.789-3.6034 3.703-4.0294 1.116-.2663 2.25-.2485 3.348.1243.372.1242.744.355 1.116.3372.301-.0355.585-.355.904-.5503zm-68.3164-.1597v3.3194c-.0355.0177-.0709.0355-.1063.0355-.0886-.1598-.1595-.3195-.2303-.4793-.6733-1.4023-1.6831-2.2898-3.3131-2.3076-1.187-.0177-2.0551.5503-2.4804 1.6153-.7618 1.8283-.7795 3.7277-.0885 5.5737.6201 1.6686 2.4449 1.9526 3.8445 1.4201.1063-.0355.2126-.284.2126-.426.0177-.6213 0-1.2426-.0177-1.8816-.0177-.6035-.1949-.781-.7795-.8875-.1241-.0178-.2658-.071-.3721-.1953h4.4115c.0177.0355.0177.071.0354.1065-.1063.0355-.1948.0888-.3011.1065-.5315.1243-.7619.3728-.7796.9053-.0177.6035.0177 1.2248-.0177 1.8283-.0177.1598-.1417.4083-.2835.4615-1.5591.6391-3.2067.8521-4.8721.5681-2.3918-.4261-3.9686-2.2544-4.004-4.5975-.0532-2.3786 1.5413-4.4376 3.8445-4.9524 1.1694-.2663 2.3387-.2308 3.4903.1953.2126.0887.4252.1597.6555.2307.372.142.6732.0533.8681-.3195.0354-.0533.124-.1243.2835-.3195zm46.8254 2.0413c-.017.3018-.053.4438-.053.5858v5.1299c0 .2308.036.4616.071.6923.089.5858.337.8698.921.994.142.0355.301.0711.425.2131h-3.206c-.018-.0355-.018-.0533-.036-.0888.142-.0355.266-.0888.408-.1243.655-.1242.921-.3727.956-1.0472.036-.9763.036-1.9349.036-2.9112v-3.4613c0-.7988-.354-1.2781-1.134-1.4911-.089-.0177-.177-.0532-.337-.1065.124-.071.178-.1065.231-.1065.992 0 1.966-.0178 2.958 0 .16 0 .355.1953.479.355 1.329 1.6686 2.657 3.3371 3.986 5.0235.089.1065.195.213.319.3727.035-.1242.089-.1952.089-.2662 0-1.3136.017-2.6271-.018-3.9407-.036-.9585-.195-1.1005-1.116-1.3313-.053-.0177-.107-.0532-.142-.1597h2.923c.018.0355.018.071.036.0887-.124.0533-.248.1243-.372.142-.55.0888-.798.4438-.798.9585-.017 1.4024-.035 2.8047-.035 4.1892v3.5501c0 .1953-.018.3728-.035.5681-.054.0177-.107.0532-.16.071-2.091-2.6094-4.199-5.201-6.396-7.8991zm-36.78-2.0236c.2127.4793.3721.8166.5316 1.1716.9567 2.1833 1.8957 4.3667 2.8701 6.55.3189.7278.5669 1.5443 1.435 1.8993h-4.4114c0-.0355-.0178-.071-.0178-.1065.1772-.0355.3544-.071.5493-.1065.4783-.0888.6378-.3018.4783-.7633-.1772-.497-.3898-.9763-.6201-1.4555-.0531-.1065-.248-.213-.372-.213-.9213-.0178-1.8426-.0178-2.7639 0-.124 0-.3011.0532-.3366.1242-.2126.497-.4429.994-.5492 1.5266-.0886.4437.2303.6745.6555.7632.1595.0355.3366.071.4784.2131h-2.9587c1.2579-.5503 1.4705-1.7929 1.9488-2.8402.9567-2.0413 1.8426-4.1004 2.7638-6.1594.1063-.142.1772-.3018.3189-.6036zm-.9035 3.1952c-.5315 1.1893-.9922 2.2188-1.4705 3.3016h2.8701c-.4606-1.1006-.8858-2.1301-1.3996-3.3016zm-26.7348-22.7209h.7619v29.7146c0 .1953-.0709.497-.2126.5503-.3367.1775-.5493-.0178-.5493-.3905zm53.6113 19.8453h4.908c-.16.1065-.195.142-.231.142-1.187.0355-1.205.5147-1.205 1.3845-.017 1.9703-.017 3.9584 0 5.9287.018 1.6331.124 1.4911 1.312 1.8461h-4.784c0-.0177 0-.0355-.0177-.0532.0885-.0178.1948-.0533.2834-.071.8327-.1598.9743-.3196.9923-1.1716.018-2.0768 0-4.1537 0-6.2305.018-1.3845.018-1.3845-1.258-1.775z" fill="#fff"/></svg>