<svg fill="none" height="50" viewBox="0 0 140 50" width="140" xmlns="http://www.w3.org/2000/svg"><g fill="#fff"><path d="m27.3486 9.00195c.6881.12037 1.3839.21065 2.0624.36675 2.245.51157 3.4694 1.7134 3.7231 3.9477.1268 1.1172.0384 2.3059-.2211 3.4024-.3882 1.6494-1.6664 2.5785-3.4098 3.0374.7939 1.3203 1.5339 2.5503 2.2719 3.7804.717 1.1961 1.4301 2.3942 2.2354 3.7446h-4.34c-1.3244-2.2964-2.6967-4.6756-4.0653-7.051h-4.6553v7.0604h-3.898c-.0192-.3705-.0519-.7015-.0519-1.0325 0-5.3885.0019-10.7788.0173-16.1691 0-.36295.1057-.72406.1615-1.08705zm-6.3449 7.94435c1.5531 0 2.987.0245 4.4189-.0094.7919-.0188 1.5992-.0601 2.3661-.2351 1.1014-.2501 1.5089-.9366 1.4781-2.1817-.0288-1.1228-.4555-1.877-1.5165-1.9372-2.2373-.126-4.4862-.0376-6.7447-.0376v4.401z"/><path d="m54.4001 9.00186c.0788 1.03444.1576 2.06884.248 3.24814-1.0745 0-1.9586-.0057-2.8409 0-1.4377.0131-2.8793-.0377-4.3093.0714-2.4987.1881-3.7193 1.5517-3.7788 4.1659h10.7733v3.1691h-10.7503c-.3287 2.7253 1.086 4.4236 3.702 4.5007 1.9797.0583 3.9614.017 5.9431.0188h1.1052v3.0657c-.1615.0451-.2787.1072-.396.1072-2.5871-.0056-5.1781.0564-7.7633-.0508-3.552-.1467-6.1392-2.3848-6.8542-5.8473-.4651-2.255-.4152-4.5233.1499-6.7633.8227-3.2631 3.0908-5.14576 6.5544-5.50122.3748-.0395.7458-.12225 1.1186-.18432z"/><path d="m90.4702 9.00186c1.084 2.42054 2.1835 4.83544 3.2502 7.26164 1.4589 3.3177 2.8966 6.6448 4.3363 9.9719.1307.3028.221.6225.369 1.0495h-4.2324c-.5536-1.3711-1.1206-2.7798-1.703-4.2205h-8.1439c-.5401 1.3843-1.0937 2.7967-1.6588 4.243h-4.0998c.1441-.4062.2345-.7165.3633-1.0118 2.3949-5.4674 4.7937-10.933 7.1963-16.39473.1364-.31033.321-.59808.4843-.89713h3.8366zm-2.1066 3.72394c-.9669 2.4845-1.828 4.6982-2.7044 6.9551h5.5145c-.9303-2.304-1.8145-4.4951-2.8101-6.9551z"/><path d="m64.7602 9.00186c.0654.3912.1865.7824.1865 1.17364-.0039 3.5828-.0654 7.1676-.0327 10.7505.0211 2.2456 1.1071 3.2725 3.4156 3.3816.8937.0414 1.7894.0226 2.6851.0244.8611.0038 1.7241 0 2.6737 0v2.9359c-.1961.0301-.4075.0903-.619.0903-2.0451-.0113-4.0959.0376-6.1372-.0658-3.5155-.1806-5.8297-2.3322-5.9431-5.7589-.1307-3.9215-.0116-7.8523.0192-11.77745.0019-.25202.1941-.50216.296-.75419h3.454z"/><path d="m106.01 9.00186c1.317.54731 2.272 1.37484 2.203 2.90014-.06 1.2977-1.103 2.3566-2.399 2.5108-1.318.1562-2.568-.6131-2.977-1.8318-.423-1.262.15-2.60678 1.374-3.23496.217-.11096.431-.22945.646-.34418h1.151z"/><path d="m120.401 9.00188c.219.10909.438.22005.657.32914 1.175.58868 1.753 1.78858 1.463 3.03928-.279 1.2056-1.416 2.0689-2.714 2.0557-1.247-.0113-2.378-.8783-2.645-2.0293-.292-1.2545.277-2.46384 1.44-3.05628.217-.11097.432-.22757.65-.34042h1.151z"/><path d="m112.551 15.5357c1.522.0056 2.735 1.1849 2.743 2.6688.006 1.4708-1.213 2.6876-2.716 2.7083-1.547.0207-2.789-1.1999-2.777-2.7309.011-1.4914 1.218-2.6518 2.752-2.6462z"/><path d="m102.718 24.7797c.011-1.4821 1.236-2.6669 2.752-2.6632 1.499.0038 2.749 1.2169 2.76 2.6764.012 1.4971-1.276 2.7308-2.823 2.7045-1.517-.0263-2.701-1.2225-2.689-2.7196z"/><path d="m117.101 24.7947c.007-1.4876 1.216-2.6744 2.733-2.6782 1.509-.0037 2.743 1.1849 2.76 2.6632.019 1.514-1.236 2.7384-2.793 2.7196-1.518-.0169-2.708-1.2093-2.7-2.7046z"/><path d="m22.9566 41.6295c-.3998.141-1.1879.3705-2.1182.3705-1.0437 0-1.9048-.2596-2.5794-.8915-.594-.5605-.963-1.4614-.963-2.5146.0096-2.0124 1.4224-3.4851 3.7366-3.4851.5631 0 1.0379.0847 1.3743.1843.196.0583.3056.2596.246.4514l-.0039.0132c-.0595.1975-.2729.3028-.4728.2407-.3056-.094-.6766-.158-1.1648-.158-1.678 0-2.7736 1.0213-2.7736 2.714s1.0533 2.7234 2.6621 2.7234c.5844 0 .9822-.0809 1.1879-.1806v-2.0124h-1.0437c-.198 0-.3575-.1561-.3575-.3498 0-.1938.1595-.3499.3575-.3499h1.9144v3.2444z"/><path d="m39.254 39.807-.6189 1.8318c-.0596.175-.2249.2916-.4133.2916-.2979 0-.5074-.2859-.4113-.5624l1.9759-5.6893c.1038-.2972.3883-.4984.7112-.4984.321 0 .6074.1993.7112.4965l1.9855 5.6912c.0961.2765-.1134.5624-.4113.5624h-.0327c-.1864 0-.3517-.1166-.4113-.2878l-.6362-1.8356h-2.4469zm2.2623-.6809-.6746-1.9428c-.1538-.4401-.2557-.8407-.3575-1.2319h-.0212c-.1019.4006-.2153.8106-.3479 1.2225l-.6746 1.9522h2.0777z"/><path d="m63.9933 38.9644c-.0519-.9423-.1134-2.0726-.1019-2.9152h-.0307c-.2345.7918-.5228 1.6325-.8707 2.5635l-1.1168 3.0036c-.0615.1636-.2191.2727-.3959.2727h-.0769c-.1807 0-.3421-.1129-.3998-.2803l-1.0187-2.934c-.3268-.9516-.6035-1.8224-.7977-2.6236h-.0211c-.0212.8407-.0711 1.9729-.1326 2.9848l-.1596 2.507c-.0134.2182-.198.3875-.4209.3875-.2441 0-.4383-.2032-.421-.442l.4229-5.9245c.0154-.2162.1999-.3836.4209-.3836h.444c.1788 0 .3383.1109.3979.2764l1.0783 2.9886c.2864.8313.5228 1.5723.6958 2.2738h.0308c.1749-.6808.419-1.4218.7265-2.2738l1.1264-2.9942c.0615-.1617.2191-.2708.3959-.2708h.444c.223 0 .4075.1692.421.3874l.3767 5.9244c.0154.237-.1788.4383-.4209.4383h-.0212c-.223 0-.4094-.1712-.4209-.3894l-.1519-2.5747z"/><path d="m81.1192 35.6148v5.8793c0 .2407-.1999.4363-.446.4363-.246 0-.4459-.1956-.4459-.4363v-5.8793c0-.2408.1999-.4364.4459-.4364.2461 0 .446.1956.446.4364z"/><path d="m96.4921 41.5185v-5.7269c0-.3386.2806-.6132.6266-.6132.2152 0 .4151.1072.5305.2859l2.0259 3.1296c.5109.7918.9109 1.5028 1.2379 2.193l.021-.0094c-.083-.9009-.102-1.7228-.102-2.7741v-2.4131c0-.2275.189-.41.419-.41.233 0 .419.1843.419.41v5.7721c0 .3141-.259.568-.58.568-.2 0-.387-.1015-.492-.2671l-2.0205-3.1597c-.4805-.7504-.9418-1.5215-1.2897-2.2531l-.0307.0094c.0519.852.0711 1.6626.0711 2.7835v2.4732c0 .2276-.1884.4101-.419.4101-.2326 0-.4191-.1844-.4191-.4101z"/><path d="m122.298 41.6295c-.4.141-1.188.3705-2.118.3705-1.044 0-1.905-.2596-2.579-.8915-.594-.5605-.963-1.4614-.963-2.5146.009-2.0124 1.422-3.4851 3.736-3.4851.563 0 1.038.0847 1.374.1843.196.0583.306.2596.246.4514l-.003.0132c-.06.1975-.273.3028-.473.2407-.306-.094-.677-.158-1.165-.158-1.678 0-2.774 1.0213-2.774 2.714s1.054 2.7234 2.663 2.7234c.584 0 .982-.0809 1.187-.1806v-2.0124h-1.043c-.198 0-.358-.1561-.358-.3498 0-.1938.16-.3499.358-.3499h1.914v3.2444z"/></g></svg>