<svg fill="none" height="50" viewBox="0 0 140 50" width="140" xmlns="http://www.w3.org/2000/svg"><g fill="#fff"><path d="m124.64 10h-18.978l-1.403 8.7882.28 1.2706 1.509-8.2588 2.806 12.0353-2.947 14.5412-1.578-9.2471-.281 1.8353 1.438 9h19.329l5.052-16.1647zm-11.471 1.9059 6.209 4.0941-1.473-4.0941h4.139l3.332 9.247h-3.648l-6.349-4.2705 1.263 4.2705h-4.385l-2.526-9.247zm11.12 27.3177h-17.785l3.087-15.4236h19.504z"/><path d="m121.132 26.3059-1.368 4.8353-3.719-4.8353h-3.788l-2.386 10.553h4.245l1.193-4.6589 3.718 4.6589h3.473l3.122-10.553z"/><path d="m102.189 10.1412h-19.0483l-.2807 10.7294.6665-7.0941.5262 9.9882-.3508 10.7647-.8068-6 .5963 11.4706h18.8026l2.806-16.1647zm-6.981 1.8706 1.3681 9.1412h-4.42l-1.1927-9.0706zm6.455 27.2118h-17.3998l.5262-15.4236h19.5396z"/><path d="m91.209 37.1765h4.2446l1.2629-10.6941h-4.4902z"/><path d="m60.6548 10.1412-1.8943 13.7294 2.0346 16.0941h18.8728l.1754-16.447-.1754-13.3765zm3.964 1.9412h7.0509s4.5955.3529 4.6305 3.2823c.0351 2.9294-5.297 3.4589-5.297 3.4589h-2.666l-.2105 2.3647h-4.5252zm14.3124 27.1412h-17.5047l-1.9294-15.2824 19.5744.0353z"/><path d="m71.9154 15.2589c0-.9883-1.2278-1.0236-1.2278-1.0236h-2.0697l-.1403 2.1883h2.1398c0 .0353 1.298-.1765 1.298-1.1647z"/><path d="m65.0396 37.0353h3.5431l1.333-4.2706 1.754 4.2706h3.4378l3.122-10.5529h-3.8236l-1.2629 4.7647-1.9644-4.7647h-3.087l-1.5435 4.6588-1.5085-4.6588h-4.1744-.0351z"/><path d="m54.4106 26.3059 2.0697-12.9882 1.8943 8.8941-1.4733-12.0706h-19.2938l-3.8236 16.2 4.7006 13.3412 18.943-.2118 1.333-12.8117-1.8242 11.3647zm-11.471-7.7294c-.8419-.2471-2.2802-.953-2.2802-2.2588 0-1.3059 1.0524-2.4353 1.6488-2.8236.6314-.3882 2.1749-1.2706 4.9813-1.2706 2.8063 0 4.7708.9177 4.7708.9177l-1.754 2.5059s-.3157-.1412-.6314-.2471-1.4032-.4941-2.8765-.5294c-1.4734-.0353-1.754.5647-1.7891.6706s-.1052.4941 1.6487.7412c1.754.247 2.9818.6 3.5782.847.5963.2471 1.3681 1.0589 1.3681 1.9412 0 .8471-.2105 1.5177-1.0524 2.4-.8419.8824-2.4205 1.6941-5.8583 1.7647s-5.5075-1.0588-5.5075-1.0588 1.9995-2.6824 2.0346-2.6824c0 0 .421.2471 1.1576.5295.7367.2823 2.3504.5294 2.8415.5647.4911 0 1.754-.0353 1.9644-.7412.2105-.7059-3.4378-1.0235-4.2446-1.2706zm-3.9289 20.3647-4.4551-12.5647 19.1183-.0706 2.7012 12.4235z"/><path d="m52.9373 33.5412h-1.6487l-.3508-1.3412h-4.1394l.2806 1.3059-1.6136-.0353 3.5781-4.9412-4.6305-.0353-3.9991 5.5059.6315 1.8353 6.63.0353.3859 1.4824h4.1744l-.3508-1.5177h1.6488z"/><path d="m36.9411 36.1177-.3859 1.8-6.1389-6.3177 2.7362-19.5176 2.7011 4.3059.2456-.9883-2.8766-4.5529-20.0304.1765-3.1922 20.5412 8.4892 6.8117 18.6974.2471.2456-1.2zm-17.7853-22.1294.035-.0353h6.595l-1.754 13.6588h-4.5603l1.3681-10.1647h-2.2451zm-.3859 23.647-7.5772-6.0353h18.2063l6.1038 6.2471z"/><path d="m25.6102 34.1413-4.2095-1.6236-.7717 1.5883-4.3148.3176 4.7708 1.3059 1.1576 1.5882 3.508-.7411 4.9813.7764-2.2101-1.6588 2.175-1.2706z"/></g></svg>