<svg width="12" height="13" viewBox="0 0 12 13" fill="none" xmlns="http://www.w3.org/2000/svg">
<path d="M5.41568 2.03311C5.65159 1.55407 6.33317 1.55407 6.56908 2.03311L7.76263 4.45673L10.4314 4.8454C10.9589 4.92221 11.1696 5.57184 10.7879 5.94473L8.85669 7.83126L9.31259 10.4951C9.40268 11.0216 8.85128 11.4231 8.37945 11.1745L5.99236 9.91684L3.6053 11.1745C3.13349 11.4231 2.58205 11.0216 2.67216 10.4951L3.12806 7.83126L1.19687 5.94473C0.815167 5.57184 1.0258 4.92221 1.5533 4.8454L4.22213 4.45673L5.41568 2.03311ZM5.99236 2.36857L4.81358 4.76228C4.71991 4.95253 4.53881 5.08436 4.32933 5.11486L1.69343 5.49872L3.60079 7.36196C3.75236 7.51003 3.82153 7.72338 3.78575 7.93248L3.33548 10.5634L5.6931 9.32126C5.88045 9.22254 6.1043 9.22254 6.29165 9.32126L8.64925 10.5634L8.19902 7.93248C8.16322 7.72338 8.23237 7.51003 8.38397 7.36196L10.2913 5.49872L7.65542 5.11486C7.44594 5.08436 7.26485 4.95253 7.17118 4.76228L5.99236 2.36857Z" fill="#737787"/>
<g clip-path="url(#clip0_1_17403)">
<path d="M5.3939 2.05156C5.6415 1.54987 6.3569 1.54987 6.6045 2.05156L7.7835 4.44042L10.4198 4.82349C10.9734 4.90394 11.1945 5.58434 10.7938 5.97484L8.8862 7.83429L9.33655 10.4599C9.4311 11.0113 8.85235 11.4318 8.35715 11.1715L5.9992 9.93184L3.64126 11.1715C3.14607 11.4318 2.5673 11.0113 2.66187 10.4599L3.1122 7.83429L1.20458 5.97484C0.803955 5.58434 1.02503 4.90394 1.57868 4.82349L4.21494 4.44042L5.3939 2.05156Z" fill="#F6DA24"/>
</g>
<defs>
<clipPath id="clip0_1_17403">
<rect width="6" height="12" fill="white" transform="translate(0 0.5)"/>
</clipPath>
</defs>
</svg>
