<svg width="33" height="33" viewBox="0 0 33 33" fill="none" xmlns="http://www.w3.org/2000/svg"><path fill-rule="evenodd" clip-rule="evenodd" d="M8.8283 5.78987C8.82351 5.79385 8.8138 5.80413 8.80647 5.82551L6.34722 13.0056H10.2981L12.7696 5.78987H8.8283ZM15.5883 5.78987L13.1169 13.0056H19.5392L17.0678 5.78987H15.5883ZM19.8865 5.78987L22.358 13.0056H26.9858L24.5266 5.82551C24.5193 5.80413 24.5096 5.79385 24.5048 5.78987H19.8865ZM26.0299 15.6722H22.3642L19.8343 23.2091L26.0299 15.6722ZM17.1754 29.689C17.7568 29.5754 18.308 29.2653 18.7245 28.7586L29.3706 15.8076C29.985 15.0601 30.16 14.0431 29.849 13.1353L27.0494 4.96143C26.6818 3.88821 25.6838 3.1232 24.5129 3.1232H8.82013C7.64926 3.1232 6.65127 3.88821 6.28368 4.96143L3.48404 13.1353C3.17311 14.0431 3.34805 15.0601 3.96251 15.8076L14.6086 28.7586C15.0251 29.2653 15.5763 29.5754 16.1577 29.689C16.3244 29.7579 16.5067 29.7936 16.6948 29.7896C16.8634 29.786 17.0258 29.7508 17.1754 29.689ZM16.5829 24.5157L19.5513 15.6722H13.1904L16.5829 24.5157ZM10.3342 15.6722L12.9864 22.5858L7.30321 15.6722H10.3342Z" fill="url(#paint0_linear_1777_463622)"/><defs><linearGradient id="paint0_linear_1777_463622" x1="3.33325" y1="16.4565" x2="29.9998" y2="16.4565" gradientUnits="userSpaceOnUse"><stop stop-color="#DA22FF"/><stop offset="1" stop-color="#9733EE"/></linearGradient></defs></svg>