<svg width="32" height="33" viewBox="0 0 32 33" fill="none" xmlns="http://www.w3.org/2000/svg"><path d="M20.3334 18.4565H15.0001C14.4481 18.4565 14.0001 18.0085 14.0001 17.4565V9.45653C14.0001 8.90453 14.4481 8.45653 15.0001 8.45653C15.5521 8.45653 16.0001 8.90453 16.0001 9.45653V16.4565H20.3334C20.8854 16.4565 21.3334 16.9045 21.3334 17.4565C21.3334 18.0085 20.8854 18.4565 20.3334 18.4565ZM16.0001 3.1232C8.63741 3.1232 2.66675 9.09387 2.66675 16.4565C2.66675 23.8192 8.63741 29.7899 16.0001 29.7899C23.3627 29.7899 29.3334 23.8192 29.3334 16.4565C29.3334 9.09387 23.3627 3.1232 16.0001 3.1232Z" fill="url(#paint0_linear_1777_463612)"/><defs><linearGradient id="paint0_linear_1777_463612" x1="2.66675" y1="16.4565" x2="29.3334" y2="16.4565" gradientUnits="userSpaceOnUse"><stop stop-color="#00F5A0"/><stop offset="1" stop-color="#00D9F5"/></linearGradient></defs></svg>