<svg width="33" height="33" viewBox="0 0 33 33" fill="none" xmlns="http://www.w3.org/2000/svg"><path fill-rule="evenodd" clip-rule="evenodd" d="M13.04 3.82987C12.44 5.58987 12.0133 7.41653 11.68 9.2432C14.7733 8.89653 17.8933 8.89653 20.9867 9.2432C20.6533 7.41653 20.2267 5.6032 19.6267 3.82987C19.6083 3.75622 19.6026 3.69529 19.5964 3.62952L19.5964 3.62945C19.5937 3.59998 19.5908 3.56953 19.5867 3.53653C18.5467 3.2832 17.4533 3.1232 16.3333 3.1232C15.2 3.1232 14.12 3.2832 13.0667 3.53653C13.0614 3.57894 13.0603 3.61712 13.0592 3.65445V3.65446V3.65447V3.65448V3.65449V3.6545C13.0576 3.71105 13.0561 3.76562 13.04 3.82987ZM23.2667 9.52382C24.9867 9.81716 26.6801 10.2305 28.3601 10.7372C27.0401 7.97716 24.8134 5.75049 22.0534 4.43049C22.5734 6.09716 22.9867 7.80382 23.2667 9.52382ZM10.4668 28.3497L10.4667 28.3497L10.4667 28.3497C10.4434 28.3563 10.4201 28.363 10.4001 28.363C7.81341 27.083 5.70675 24.963 4.41341 22.3763C4.41341 22.3563 4.42008 22.333 4.42674 22.3097C4.43341 22.2863 4.44008 22.263 4.44008 22.243C6.06674 22.723 7.74675 23.083 9.41341 23.363C9.70674 25.043 10.0534 26.7097 10.5334 28.3363C10.5134 28.3363 10.4901 28.343 10.4668 28.3497ZM28.2534 22.3897C26.9334 25.043 24.7334 27.1897 22.0534 28.483C22.5601 26.7897 22.9867 25.083 23.2667 23.363C24.9467 23.083 26.6001 22.723 28.2267 22.243C28.2187 22.2751 28.23 22.3072 28.2402 22.3364C28.247 22.3557 28.2534 22.3737 28.2534 22.3897ZM10.5333 4.57596C10.0533 6.20263 9.70664 7.85596 9.42664 9.53596C7.70664 9.80263 5.99997 10.2293 4.30664 10.736C5.59997 8.05596 7.74664 5.85596 10.4 4.53596C10.42 4.53596 10.4433 4.54596 10.4666 4.55596C10.49 4.56596 10.5133 4.57596 10.5333 4.57596ZM9.12 21.1096C7.28 20.7762 5.46667 20.3496 3.70667 19.7496C3.64242 19.7335 3.58785 19.7319 3.5313 19.7303H3.53129H3.53128H3.53127H3.53126C3.49393 19.7293 3.45574 19.7282 3.41333 19.7229C3.16 18.6696 3 17.5896 3 16.4562C3 15.3362 3.16 14.2429 3.41333 13.2029C3.44629 13.1988 3.4767 13.1959 3.50613 13.1932L3.50618 13.1932L3.50625 13.1932L3.50632 13.1932C3.57209 13.187 3.63302 13.1813 3.70667 13.1629C5.48 12.5762 7.28 12.1362 9.12 11.8029C8.78667 14.8962 8.78667 18.0162 9.12 21.1096ZM29.2534 19.7229C29.5067 18.6696 29.6667 17.5896 29.6667 16.4562C29.6667 15.3362 29.5067 14.2562 29.2534 13.2029C29.1467 13.2029 29.0667 13.1896 28.96 13.1629C27.2 12.5629 25.3734 12.1362 23.5467 11.8029C23.8934 14.8962 23.8934 18.0162 23.5467 21.1096C25.3734 20.7762 27.1867 20.3362 28.96 19.7496C29.0243 19.7335 29.0789 19.7319 29.1354 19.7303C29.1728 19.7293 29.211 19.7282 29.2534 19.7229ZM20.9867 23.6701C20.6533 25.5101 20.2267 27.3234 19.6267 29.0834C19.6083 29.1571 19.6026 29.218 19.5964 29.2838L19.5964 29.2838C19.5937 29.3133 19.5908 29.3437 19.5867 29.3767C18.5467 29.6301 17.4533 29.7901 16.3333 29.7901C15.2 29.7901 14.12 29.6301 13.0667 29.3767C13.0614 29.3343 13.0603 29.2961 13.0592 29.2588C13.0576 29.2022 13.0561 29.1477 13.04 29.0834C12.4533 27.3101 12.0133 25.5101 11.68 23.6701C13.2267 23.8434 14.7733 23.9634 16.3333 23.9634C17.8933 23.9634 19.4533 23.8434 20.9867 23.6701ZM11.3156 21.4743C14.6504 21.8951 18.0163 21.8951 21.3511 21.4743C21.7719 18.1395 21.7719 14.7736 21.3511 11.4388C18.0163 11.018 14.6504 11.018 11.3156 11.4388C10.8948 14.7736 10.8948 18.1395 11.3156 21.4743Z" fill="url(#paint0_linear_1777_463617)"/><defs><linearGradient id="paint0_linear_1777_463617" x1="3" y1="16.4566" x2="29.6667" y2="16.4566" gradientUnits="userSpaceOnUse"><stop stop-color="#EC008C"/><stop offset="1" stop-color="#FC6767"/></linearGradient></defs></svg>