<svg width="25" height="26" viewBox="0 0 25 26" fill="none" xmlns="http://www.w3.org/2000/svg"><path fill-rule="evenodd" clip-rule="evenodd" d="M20.8238 21.008C20.8238 21.008 21.4161 20.8714 21.4922 20.5568L22.9054 8.75082L22.9778 8.14614C23.037 7.90332 22.9449 7.64806 22.7457 7.50359C22.5454 7.3585 22.2805 7.35494 22.0791 7.4947L18.7348 9.78825C18.6047 9.87771 18.5143 10.0162 18.4838 10.1744C18.4533 10.3319 18.4849 10.4959 18.5713 10.6298C18.7658 10.9295 18.8689 11.2777 18.8689 11.6377C18.8689 12.6409 18.0756 13.457 17.1004 13.457C16.1252 13.457 15.3319 12.6409 15.3319 11.6377C15.3319 11.0479 15.6145 10.4918 16.0883 10.1495C16.3549 9.95767 16.4194 9.57981 16.2328 9.30562L13.4568 5.22596C13.2357 4.90141 12.7118 4.90141 12.4907 5.22596L9.71472 9.30562C9.52822 9.57981 9.59267 9.95767 9.8592 10.1495C10.333 10.4918 10.6157 11.0479 10.6157 11.6377C10.6157 12.6409 9.82237 13.457 8.84714 13.457C7.87192 13.457 7.07861 12.6409 7.07861 11.6377C7.07861 11.2776 7.18168 10.9294 7.37628 10.6298C7.46262 10.496 7.49428 10.3319 7.46375 10.1744C7.43322 10.0162 7.34283 9.87771 7.21274 9.78825L3.86848 7.4947C3.66585 7.35494 3.40044 7.3585 3.2018 7.50359C3.00263 7.64806 2.91051 7.90332 2.96978 8.14614L4.45529 20.5568C4.52955 20.8636 4.82377 21.0637 5.12369 21.008H20.8238Z" fill="#F6DA24"/></svg>